<?xml version="1.0" encoding="UTF-8"?>
<svg id="Layer_1" xmlns="http://www.w3.org/2000/svg" version="1.1" viewBox="0 0 1503.46 1233.23">
  <!-- Generator: Adobe Illustrator 29.6.1, SVG Export Plug-In . SVG Version: 2.1.1 Build 9)  -->
  <defs>
    <style>
      .st0 {
        fill: #333;
      }

      .st0, .st1, .st2 {
        font-family: GmarketSansMedium-KSCpc-EUC-H, 'Gmarket Sans';
        font-size: 30.49px;
      }

      .st3 {
        fill: #cef0ff;
      }

      .st3, .st4, .st5, .st6, .st7, .st8 {
        fill-rule: evenodd;
      }

      .st9, .st4, .st6, .st8 {
        fill: #7cd1dc;
      }

      .st9, .st5, .st6, .st7, .st8 {
        stroke: #fff;
      }

      .st9, .st5, .st7, .st8 {
        stroke-miterlimit: 10;
      }

      .st1 {
        letter-spacing: -.05em;
      }

      .st1, .st2 {
        fill: #fff;
      }

      .st5 {
        fill: #013f85;
      }

      .st7 {
        fill: #3e8fb3;
      }
    </style>
  </defs>
  <path class="st9" d="M796.75,1051.8l-3.67-4.49c-.73-.9-1.53-1.74-2.38-2.53l-1.18-1.1c-4.12-3.83-7.21-8.63-8.99-13.97l-1.57-4.7c-.47-1.42-.68-2.92-.61-4.42l.49-10.88s-.07.02-.1.02l-9.41,2.55c-4.88,1.32-9.97,1.68-14.98,1.05-2.18-.27-4.39.07-6.39.99-3.63,1.68-7.87,1.39-11.24-.76l-7.49-4.76c-1.38-.88-2.41-2.2-2.93-3.75l-.13-.38c-.71-2.12-2.37-3.79-4.49-4.49l-.33-.11c-1.58-.53-2.93-1.6-3.8-3.02l-2.69-4.38c-.91-1.48-2.34-2.58-4.01-3.08-2.6-.78-4.52-2.97-4.97-5.64l-.68-4.07c-.4-2.42.39-4.89,2.12-6.62.85-.85,1.3-2.02,1.25-3.22l-.42-9.15c-.12-2.62-.89-5.18-2.24-7.43h0c-1.34-2.23-2.11-4.76-2.24-7.36l-.32-6.38c-.1-1.96-1.51-3.59-3.43-3.98l-1.11-.22c-1.52-.3-3.08.24-4.08,1.41l-1.46,1.7c-3.3,3.85-7.86,6.4-12.87,7.19-3.41.54-6.91.1-10.08-1.26l-7.84-3.36c-1.05-.45-1.83-1.34-2.15-2.44-.5-1.77-2.2-2.91-4.03-2.72l-6.71.71c-1.99.21-3.81,1.22-5.04,2.8-1.75,2.24-4.63,3.28-7.41,2.67l-5.58-1.24c-1.41-.31-2.89-.2-4.24.32l-1.69.65c-3.28,1.26-6.93,1.18-10.15-.23l-2.85-1.25c-2.01-.88-4.19-1.25-6.38-1.08-3.56.27-7.07-.89-9.77-3.22l-4.33-3.75c-1.11-.96-2.49-1.55-3.95-1.68-3.12-.28-6.04,1.54-7.17,4.46l-1.33,3.46c-.12.32-.22.66-.3.99l-1.71,7.68c-.57,2.57-2.38,4.7-4.82,5.68-1.88.75-3.97.76-5.85.03l-2.52-.98c-4.42-1.72-9.3-1.79-13.77-.22h-.02c-3.06,1.09-5.81,2.91-8.01,5.3h0c-2.69,2.94-6.34,4.82-10.3,5.32l-.18.02c-2.98.37-5.74,1.8-7.76,4.03-2.43,2.68-5.44,4.76-8.8,6.11l-2.18.87c-4.17,1.67-8.72,2.13-13.13,1.32l-3.45-.63c-.68,1.18-1.4,2.35-2.16,3.49l-.33.49c-4.44,6.66-7.65,14.05-9.5,21.82.38-.14.76-.29,1.14-.45h0c4.51-1.9,9.4-2.76,14.29-2.52l3.26.16c1.14.06,2.25-.37,3.06-1.18l1.29-1.29c1.1-1.1,2.75-1.47,4.22-.95l2.64.94c2.11.75,3.31,2.96,2.81,5.14h0c-.55,2.37.93,4.74,3.3,5.29l1.91.44c1.22.28,2.26,1.06,2.86,2.15l1.31,2.36c.55.99.7,2.16.41,3.26l-2.26,8.58c-.26,1-.91,1.87-1.79,2.41-3.83,2.36-5.26,7.22-3.31,11.28l3.93,8.19c.09.19.18.39.26.59l6.29,16c.3.77.83,1.43,1.52,1.89l.94.63c1.95,1.3,2.39,3.99.95,5.84h0c-1.02,1.32-1.13,3.13-.28,4.56l3.49,5.81c.46.76.65,1.66.55,2.54l-1.29,11.17c-.24,2.09,1.16,4.01,3.22,4.43l7.94,1.59c.59.12,1.15.37,1.63.73l2.82,2.11c.92.69,2.09.96,3.22.73l2.75-.55c4.21-.84,8.19,2.23,8.44,6.51.1,1.62.75,3.16,1.84,4.36l3.07,3.35c1.34,1.46,3.23,2.29,5.21,2.29h1.46c1.87,0,3.67.74,5,2.07l3.63,3.63c.75.75,1.17,1.76,1.18,2.81l.13,11.05c.1-1.26,1.72-1.7,2.45-.67l3.45,4.92c.17.24.25.52.24.81l-.15,6.58c-.01.64.04,1.29.18,1.92h0c.55,2.64,2.31,4.87,4.75,6.01l.34.16c.73.34,1.41.78,2.01,1.31l6.93,6.07c.44.39.98.63,1.56.72h0c1,.14,1.86.77,2.3,1.68l.98,2.05c.29.6.77,1.1,1.37,1.4l1.79.9c.54.27.99.7,1.29,1.23l2.63,4.71c.73,1.31.71,2.9-.04,4.19-.78,1.34-.77,3,.04,4.33l1.18,1.93-.09,2.43c-.05,1.39.52,2.72,1.55,3.65.99.88,1.56,2.14,1.56,3.47,0,.32.26.57.58.55l3.5-.15h0c1.47.87,3.35.01,3.67-1.66h0c.04-.19.09-.38.17-.55l.13-.29c1.23-2.74,4.07-4.4,7.07-4.11l7.06.68c.58.06,1.15-.09,1.63-.42l4.28-2.93c.8-.55,1.66-.99,2.56-1.32h0c2.57-.94,5.38-1.01,7.99-.2.7.22,1.47.09,2.05-.36l.65-.49c.76-.57,1.79-.61,2.59-.11.89.55,2.04.44,2.8-.28l1.57-1.5c.54-.52,1.31-.74,2.05-.58l8,1.66c.74.15,1.5.18,2.25.07l9.52-1.38c1.81-.26,3.43-1.27,4.45-2.79h0c1.31-1.93,3.56-3.02,5.88-2.84l6.57.51c.76.06,1.5-.25,2-.82l.88-1.02c.41-.47.61-1.07.58-1.69l-.05-.98c-.05-.97.49-1.87,1.37-2.29,1.1-.52,1.63-1.78,1.25-2.93l-.48-1.43c-.06-.18-.1-.37-.12-.56l-.59-7.22c-.06-.77-.4-1.49-.94-2.03-.89-.89-1.19-2.22-.75-3.41l.91-2.47c.22-.59.6-1.11,1.11-1.49l11.27-8.37c.25-.19.53-.34.82-.44l4.86-1.77c3.71-1.35,6.56-4.37,7.72-8.14l.74-2.41c.52-1.7,1.54-3.2,2.94-4.3h0c1.38-1.1,2.4-2.58,2.93-4.27l.04-.12c.49-1.59,1.43-3.01,2.71-4.09l1.84-1.56c.54-.46,1.18-.77,1.88-.92l9.05-1.92c1.04-.22,1.96-.82,2.58-1.68.84-1.16,2.2-1.83,3.63-1.77l8.2.31c1.61.06,2.66-1.68,1.86-3.08l-.16-.29c-.63-1.1.09-2.48,1.35-2.59l9.72-.83,5.36-.61c.56-.06,1.11-.24,1.6-.51l3.42-1.9c-.1-.7-.14-1.4-.11-2.1l.57-16.56v-6.07c0-.53.03-1.06.1-1.58l.45-3.46c.84-6.46-1.02-12.97-5.14-18.01Z"/>
  <path class="st9" d="M494.75,977.67c.76-1.14,1.47-2.3,2.16-3.49l-3.49-.63c-.86-.16-1.64-.61-2.21-1.28l-4.4-5.2c-1.47-1.74-3.37-3.05-5.51-3.82-3.98-1.42-7.1-4.57-8.48-8.56l-2.87-8.3c-.72-2.07-.93-4.27-.64-6.44l.68-5.01c.6-4.4,0-8.88-1.76-12.96l-2.34-5.46c-.75-1.76-1.3-3.6-1.62-5.49l-2.16-12.55c-.5-2.9-.24-5.87.75-8.64,1.24-3.47,1.32-7.24.24-10.76l-2.54-8.24c-.78-2.53-2.88-4.43-5.47-4.94-1.57-.31-2.77-1.59-3-3.17-.63-4.38-3.17-8.26-6.94-10.58l-.09-.05c-1.87-1.15-3.98-1.88-6.16-2.12l-2.11-.23c-.48-.05-.94-.2-1.36-.42l-3.86-2.06c-3.74-2-6.8-5.07-8.78-8.83l-.48-.91c-2.16-4.1-5.59-7.37-9.79-9.33l-3.02-1.41c-.46-.21-.95-.33-1.46-.35-.22,1.98-.91,3.9-2.03,5.58l-1.79,2.69c-1.17,1.76-1.62,3.91-1.24,5.99h0c.42,2.3-.17,4.68-1.62,6.52l-4.92,6.23c-1.15,1.45-.76,3.58.83,4.53,1.67,1,2,3.3.66,4.72-3.88,4.16-5.6,9.88-4.67,15.49l.21,1.24c.12.71-.02,1.44-.39,2.06l-2.9,4.84c-1.06,1.76-3.53,1.98-4.88.44l-3.54-4.04c-1.27-1.45-3.55-1.36-4.71.18l-.72.96c-1.28,1.7-3.87,1.59-5-.21h0c-.49-.79-1.32-1.3-2.24-1.41l-9.54-1.06c-.16-.02-.32-.03-.48-.03h-1.45c-1.95,0-3.66-1.3-4.17-3.19-.57-2.1-2.62-3.45-4.78-3.14l-2.18.31c-1.69.24-3.37-.54-4.28-1.99l-1.37-2.19c-.17-.28-.38-.53-.61-.77l-3.1-3.1c-2.1-2.1-5.2-2.83-8.01-1.89h0c-1.87.62-3.9.52-5.69-.29-6-2.7-12.99-1.99-18.32,1.86l-.54.39c-1.26.91-2.94.96-4.25.14h0c-1.62-1.01-3.73-.67-4.95.79l-6.35,7.62c-.57.69-.88,1.55-.88,2.44v1.51c0,2.17-1.81,3.9-3.97,3.81l-9.96-.42c-.68-.03-1.35.17-1.9.57l-8.67,6.26c-1.11.8-2.45,1.24-3.82,1.24h-2.63c-2.59,0-5.1-.88-7.12-2.5l-9.5-8c-1.52-1.28-2.5-3.09-2.75-5.06h0c-.49-3.95-3.85-6.92-7.84-6.92h-1.93c-1.13,0-2.24-.24-3.27-.71l-1.25-.57c-2.52-1.15-5.46-.89-7.74.68l-.33.23c-.38.26-.82.43-1.26.49.05.09.11.17.17.26,1.26,1.57.52,3.92-1.41,4.49-2.97.87-5,3.59-5,6.69v.31c0,.21.08.42.22.58h0c.96,1.06,1.3,2.55.89,3.92l-.09.31c-.2.67-.62,1.26-1.18,1.67-1.08.79-1.56,2.17-1.2,3.46l.25.91c.37,1.34.17,2.77-.55,3.95l-.82,1.35c-.35.57-.52,1.24-.48,1.91.07,1.41-.74,2.71-2.04,3.25l-1.29.54c-1.32.55-2.38,1.58-2.96,2.89-.45.99-.6,2.1-.43,3.17l.64,4.17c.1.68-.18,1.35-.74,1.75l-1.31.92c-.5.35-1.14.43-1.71.2-.96-.38-2.04.11-2.37,1.08l-.53,1.52c-.17.49-.55.89-1.03,1.08l-3.91,1.56c-.93.37-1.98.12-2.65-.63l-1.22-1.37c-.34-.38-.79-.64-1.28-.74-1.39-.29-2.72.69-2.84,2.11l-.22,2.45c-.05.6-.33,1.15-.77,1.55l-1.48,1.34c-.81.73-1.02,1.91-.51,2.87l3.3,6.2c.18.34.28.72.29,1.1l.08,2.43c.04,1.31,1.08,2.37,2.39,2.44.68.04,1.31.34,1.76.85l1.8,2.04c.11.12.22.23.35.33l4.12,3.19c.78.6,1.71.98,2.69,1.1l.9.11c1.31.16,2.53.79,3.41,1.78l.27.3c.89.99,2.11,1.63,3.43,1.78l1.93.22c.41.05.81.18,1.17.4l4.35,2.61c.83.5,1.36,1.37,1.41,2.34l.2,3.42c.05.8.42,1.54,1.02,2.06h0c1.37,1.16,1.37,3.27.02,4.44l-4.75,4.11c-.32.27-.69.47-1.09.59l-5.78,1.7c-1.49.44-2.38,1.97-2.02,3.49l.59,2.45-.61,5.35c-.18,1.6.14,3.22.92,4.63h0c.94,1.69,1.21,3.67.76,5.55l-.07.28c-.08.35-.14.7-.18,1.06l-.17,1.79c-.09.93-.34,1.83-.75,2.67l-2.54,5.18c-.68,1.39-2.06,2.29-3.6,2.35l-1.86.07c-.16,0-.32.07-.43.19l-1.76,1.76c-1.26,1.26-1.96,2.96-1.96,4.74,0,.25-.16.47-.4.53-2.04.58-3.59,2.26-4,4.34l-.11.56c-.29,1.44.06,2.94.95,4.1.91,1.2,2.31,1.93,3.81,2.01l1.18.06,1.76.88c.24.12.46.3.62.51l.22.29c.83,1.08,2.51.88,3.06-.36.13-.29.33-.53.58-.72l1.19-.87c.65-.47.9-1.32.62-2.07l-1.31-3.53,2.17-.21c.87-.08,1.52-.84,1.47-1.71-.05-.9.65-1.67,1.55-1.71l4.73-.21c.82-.04,1.55.55,1.68,1.37l.09.54c.19,1.16,1.5,1.75,2.49,1.1l4.73-3.08c.5-.33,1.14-.35,1.66-.06.72.4,1.53.62,2.36.66l10.82.48,4.27-1.22c.46-.13.85-.42,1.11-.81l.15-.23c.8-1.2,1.85-2.23,3.07-3.01h0c2.85-1.82,6.4-2.15,9.54-.88l.41.17c1.35.55,2.57,1.37,3.58,2.41l3.17,3.27c.5.51.68,1.25.49,1.94l-.77,2.68c-.35,1.24.54,2.48,1.83,2.54.74.04,1.45-.35,1.82-.99l.05-.09c.36-.61,1.02-.99,1.73-.99h2.16c1.05,0,2.04-.48,2.69-1.3.96-1.22,2.63-1.64,4.05-1.02l2.91,1.26,1.28,1.28c.42.42,1.02.64,1.62.59l7.47-.67c.97-.09,1.94.24,2.65.9h0c.75.69,1.76,1.02,2.78.89l.18-.02c.63-.08,1.24.27,1.49.86l.74,1.74c.43,1,1.78,1.18,2.45.31.19-.24.29-.54.3-.84l.46-22.89c.04-1.94.33-3.86.87-5.72l.93-3.22c.36-1.26,1.21-2.33,2.35-2.98l1.03-.58c2.39-1.36,5.25-1.62,7.84-.71l4.51,1.65c.54.2,1.11.29,1.69.27l2.56-.08c1.61-.05,3.08-.95,3.84-2.37l.31-.58c.48-.9,1.27-1.56,2.19-2,1.86-.9,3.07-3.87,3.52-5.16.16-.46.34-.91.56-1.35l1.32-2.7c1.16-2.38,3.48-3.98,6.12-4.22,1.06-.1,2.09-.41,3.02-.93l1.41-.79c1.06-.59,1.96-1.44,2.63-2.45l9-13.71c.78-1.18,1.75-2.22,2.89-3.07,2.12-1.59,4.69-2.44,7.33-2.44h.6c1.01,0,1.89-.69,2.14-1.67.18-.73.73-1.32,1.44-1.56l1.13-.38c.59-.2,1.06-.63,1.32-1.19l1.27-2.85c.29-.66.89-1.14,1.61-1.27l.57-.11c.71-.13,1.31-.61,1.6-1.26l1.28-2.86c.28-.62-.11-1.35-.78-1.46-.81-.13-1.15-1.11-.61-1.72l1.07-1.21c.98-1.1,2.66-1.22,3.77-.26l2.86,2.47c.18.16.33.35.45.56l1.66,3.05c.18.33.15.73-.07,1.03l-1.15,1.53c-.47.63-.02,1.53.76,1.53.58,0,1.03.52.94,1.1l-.04.25c-.09.6-.48,1.11-1.02,1.37l-.84.39c-.59.27-.98.84-1.04,1.49h0c-.06.67.26,1.31.83,1.67l.48.31c.65.42.97,1.21.78,1.96l-.39,1.56c-.12.47-.04.97.21,1.38l.59.96c.53.87,1.68,1.13,2.53.57l1.54-1c.62-.4,1.01-1.08,1.05-1.82.06-1.23,1.08-2.2,2.32-2.2h4.37s0,0,0,0c1.35-1.44,3.63-1.45,4.99-.01l.52.55s0,0,0,0l-.08.98c-.12,1.55-2.37,1.62-2.59.08h0s0,0,0,0l-4.08,1.24-1.54,2.93c-.15.29-.22.61-.19.93l.21,2.8c.06.86.75,1.54,1.62,1.6l.65.04c.44.03.88-.11,1.21-.4l1.8-1.5c.5-.42,1.23-.4,1.71.04h0c.67.61,1.65.75,2.46.34l1.55-.78c1.03-.51,2.27-.31,3.08.5h0c.69.69.95,1.71.67,2.65l-1.38,4.6c-.17.58-.72.96-1.32.93l-1.11-.06c-.7-.04-1.3.48-1.37,1.18h0c.11.02.22.04.33.06l4.28.73c1.02.17,2.06-.05,2.92-.62l2.38-1.58c1.18-.79,2.69-.9,3.97-.29l5.46,2.59c2.83,1.34,5.23,3.45,6.93,6.09l.25.39c1.81,2.82,4.42,5.03,7.5,6.34,2.64,1.13,4.94,2.92,6.69,5.19l3.58,4.65,2.29,3.2c.54.75,1.32,1.3,2.21,1.55l11.36,3.13c3.55.98,7.25,1.35,10.92,1.1l7.13-.49c3.18-.22,6.3-.9,9.28-2.03,1.85-7.77,5.06-15.16,9.5-21.82l.33-.49Z"/>
  <path id="_강" data-name="강" class="st3" d="M1477.06,548.62c0-2.66-3.04-4.19-5.17-2.59l-2.71,2.02c-.29.21-.61.38-.95.5l-11.09,3.7c-.12.04-.25.08-.37.1l-6.75,1.42c-1.59.33-3.23.34-4.82.03h0c-3.17-.64-6.47.04-9.13,1.87l-10.33,7.09c-.82.56-1.58,1.2-2.29,1.91l-3.46,3.46c-1.22,1.22-2.61,2.25-4.15,3.01-1.72.85-3.28,1.99-4.6,3.39l-6.71,7.06c-.43.46-.97.82-1.56,1.05l-7.64,2.97c-.2.08-.41.18-.6.29l-5.68,3.28c-2.24,1.29-4.25,2.93-5.98,4.85h0c-3.96,4.4-9.64,6.86-15.56,6.74l-15.74-.31h-18.71c-.31,0-.6.04-.89.13l-19.95,6.18c-.17.05-.33.12-.49.2l-15.81,8.14c-.12.06-.23.13-.34.2l-12.37,8.56c-.16.11-.31.25-.46.39l-12.39,12.86c-.12.13-.26.25-.4.35l-9.9,7.2c-.45.33-.81.78-1.02,1.3l-2.28,5.54c-.5,1.21-1.72,1.97-3.02,1.87l-.61-.04c-.91-.07-1.68-.52-2.19-1.17l-1.16,3.35-.19.61c-7.75,25.17-19.71,48.84-35.39,70.01h0c-.07.09-.14.18-.2.26l-28.21,34.08c-.15.19-.31.36-.49.53l-12.58,12c-8.64,8.24-19.77,13.39-31.65,14.63l-4.93.51c-3.51.36-7.06.38-10.58.06l-19.49-1.81c-.52-.05-1.04-.16-1.52-.34l-31.52-11.46c-.3-.11-.58-.24-.86-.39l-42.17-23.19c-3.33-1.83-6.78-3.4-10.35-4.7l-54.23-19.86c-.32-.12-.65-.21-1-.27l-27.44-4.66c-7.5-1.39-14.39-.49-21.18,3h0c-6.71,3.45-12.11,9.01-15.36,15.81l-8.81,18.43c-3.41,7.14-8.74,13.18-15.39,17.46-1.91,1.22-3.89,2.5-5.76,3.7-5.94,3.81-10.83,9.04-14.28,15.28l-.15.27c-4.68,8.46-11.24,15.74-19.17,21.27l-8.64,6.02c-3.24,2.25-6.67,4.22-10.27,5.85-4.27,1.94-10.39,4.72-15.75,7.16-7.64,3.48-15.8,5.67-24.24,6.49l-.37.03c-11.41,1.11-22.92-.41-33.63-4.48l-10.07-3.82c-.22-.08-.43-.18-.65-.29-2.9-1.5-25.19-13.01-32.81-16.95-1.69-.88-3.48-1.54-5.38-2l-.16-.03c-8.8-2.13-15.59-9.14-17.43-17.99l-1.81-8.72c-1.03-4.97-3.64-9.47-7.45-12.82l-10.76-9.49c-2.37-2.09-5.15-3.69-8.16-4.7h0c-7.4-2.47-13.62-7.6-17.44-14.4l-4.36-7.76c-3.65-6.49-9.95-11.06-17.25-12.52l-4.91-.98c-2.92-.59-5.71-1.67-8.24-3.21l-6.26-3.8c-4.27-2.6-9.21-3.88-14.2-3.69l-2.36.09c-4.04.15-8,1.11-11.71,2.71-6.03,2.62-12.74,3.3-19.18,1.94l-2.17-.46c-12.16-2.57-23.06-9.23-30.89-18.88h0c-2.23-2.75-4.72-5.26-7.44-7.53l-29.88-24.81c-.74-.61-1.5-1.21-2.28-1.78l-50.45-37.03c-2.85-2.09-5.59-4.34-8.21-6.71l-36.01-32.72c-3.9-3.54-8.09-6.74-12.54-9.55l-18.55-11.74-2.83,1.41c-.76.37-1.35,1.03-1.63,1.83-.38,1.11-1.32,1.92-2.46,2.16l-16.34,3.33c-.58.12-1.01.61-1.06,1.21l-.43,5.96c-.09,1.11-1.42,1.63-2.23.87-3.29-3.11-9.47-8.9-9.86-8.9-.37,0-4.21-4.07-6.55-6.58-1.21-1.3-2.56-2.46-4.03-3.45l-.57-.39c-1.78-1.21-3.39-2.64-4.77-4.28l-3.96-4.68c-1.86-2.19-4.11-4.03-6.64-5.43l-4.73-2.6c-1.4-.77-2.71-1.68-3.92-2.71l-5.55-4.72c-3-2.56-6.25-4.82-9.69-6.75l-.18-.1c-2.93-1.65-5.62-3.67-8.01-6.02l-2.68-2.64c-2.65-2.61-5.68-4.82-8.98-6.55l-7.1-3.73c-3.17-1.67-6.1-3.79-8.69-6.27l-9.55-9.19c-.37-.36-.78-.67-1.23-.94l-11.78-7.07c-1.13-.68-2.05-1.68-2.64-2.87l-3.28-6.65c-.84-1.71-2.35-3.02-4.18-3.55-1.26-.37-2.39-1.08-3.25-2.06l-4.19-4.75c-2.46-2.79-5.43-5.1-8.75-6.78l-2.15-1.09c-2.19-1.11-4.17-2.57-5.89-4.31l-5.11-5.21c-.78-.8-1.62-1.53-2.51-2.2l-5.33-4.02c-.88-.66-1.7-1.39-2.48-2.17l-8.66-8.79c-1.05-1.06-2.76-1.08-3.82-.03l-6.56,6.44c-.36.35-.67.73-.95,1.15l7.36,6.56c3.53,3.15,6.84,6.53,9.92,10.13l7.84,9.18c10.31,12.06,21.57,23.28,33.66,33.54l23.49,19.93c6.3,5.35,13.11,10.09,20.33,14.15l11.28,6.35c10.62,5.97,21.01,12.36,31.13,19.13l40.19,26.91c6.28,4.2,12.21,8.91,17.72,14.09l24.42,23.15c17.21,16.13,34.37,29.01,54.22,41.75l15.34,9.85c1.99,1.27,3.91,2.67,5.73,4.17l29.96,24.51,42.68,32.15c.49.37.92.81,1.28,1.3l6.64,9.17c2.54,3.5,7.83,3.34,10.14-.32h0c1.38-2.19,3.99-3.28,6.52-2.71l22,4.93c5.51,1.23,10.91,2.94,16.12,5.1l22,9.11c7.76,3.21,14.71,8.12,20.34,14.36l20.96,23.24c2.14,2.36,4.07,4.91,5.77,7.61h0c5.71,9.01,13.85,16.22,23.49,20.8l31.69,15.05c.76.36,1.5.75,2.23,1.17l34.17,19.93c.28.16.58.31.88.42l12.75,4.93c13.51,5.21,28.22,6.47,42.42,3.63l1.01-.2c4.65-.93,9.19-2.29,13.59-4.06l19.86-8.01c4.94-1.99,9.67-4.5,14.09-7.48l16.74-11.27c2.65-1.78,5.1-3.82,7.33-6.1l28.03-28.55c.09-.09.18-.19.26-.29l35.05-40.61c1.52-1.76,3.2-3.38,5.02-4.82,1.68-1.33,3.94-3.13,6.27-4.99,7.18-5.72,16.23-8.59,25.43-8.06l.25.02c3.85.23,7.63,1.07,11.21,2.51l21.3,8.53,26.72,10.61c9.11,3.62,17.73,8.38,25.65,14.17l12.47,9.12,12.2,9.38c7.23,5.56,15.66,9.35,24.61,11.06l31.7,6.06c5.05.96,10.2,1.26,15.33.87l11.04-.83c8.41-.64,16.57-3.08,23.93-7.17l10.23-5.68,10.26-5.52c8.51-4.58,15.88-11.02,21.55-18.85l4.34-5.99c2.85-3.93,5.26-8.15,7.2-12.6l6.09-14.02c1.92-4.42,4.15-8.7,6.67-12.82l13.95-22.75c3.23-5.28,6.02-10.82,8.32-16.57l10.81-27.03s2.03-5.15,4.28-10.83c3.86-9.77,9.09-18.94,15.56-27.3l.23-.3c5.65-7.29,12.22-13.82,19.54-19.44l.72-.55c2.45-1.88,5.1-3.48,7.9-4.78l10.97-5.09c6.02-2.79,12.69-3.84,19.26-3.04,4.17.51,8.69,1.06,11.5,1.4,1.87.23,3.75.31,5.67.24h.15c8.44-.32,16.49-3.67,22.67-9.43l5.17-4.83c1.63-1.52,3.4-2.88,5.28-4.08l13.22-8.32,8.33-9.51,21.41-11.89,21.14-6.04c2.55-.73,5.08-1.58,7.55-2.54l3.52-1.37v-.03h0v-.04h0Z"/>
  <path class="st7" d="M874.86,95.82c.03,1.21.4,2.4,1.08,3.41l1.52,2.29c1.26,1.89,3.43,2.97,5.71,2.85h0c2.76-.15,5.3,1.47,6.32,4.03l2.18,5.44c.47,1.17.74,2.4.8,3.66l.09,1.86c.18,3.69,2.14,7.06,5.27,9.03l1.58,1c1.42.9,2.63,2.1,3.53,3.53l2.93,4.63c.81,1.27,1.35,2.69,1.6,4.18l.43,2.58c.64,3.85-.75,7.76-3.67,10.34l-3.75,3.31c-2.24,1.98-3.61,4.77-3.8,7.75l-.52,8.08c-.06.97.22,1.92.81,2.69l2.48,3.3c1.7,2.27.61,5.53-2.1,6.33h0c-1.36.4-2.42,1.49-2.78,2.86l-1.58,6.01c-.09.34-.14.69-.14,1.04v9.57c0,1.8-.54,3.57-1.54,5.07-.8,1.2-1.24,2.59-1.29,4.03l-.32,10.21c-.04,1.5.34,2.96,1.12,4.24l3.96,6.49c.84,1.38,2.09,2.46,3.58,3.08l5.98,2.52c2.32.98,4.96.76,7.09-.56l.41-.25c2.21-1.38,4.98-1.56,7.34-.45l5.3,2.47c3.05,1.42,5.56,3.8,7.15,6.76l2.67,4.99c1.46,2.74,3.72,4.99,6.48,6.43l11.97,6.29c.84.44,1.62,1,2.32,1.66l4.98,4.71c1.76,1.66,2.88,3.88,3.18,6.29l.53,4.21c.52,4.11,3.42,7.54,7.4,8.72l1.21.36c2.76.82,4.65,3.35,4.65,6.22,0,.75.13,1.48.38,2.18l3.42,9.57c.52,1.44,1.52,2.65,2.84,3.42l8.98,5.23,5.73-7.64c.76-1.01,1.21-2.22,1.28-3.48l.69-10.65c.07-1.09.42-2.14,1-3.07l4.02-6.31c1-1.57,1.68-3.34,1.97-5.18l.4-2.51c.63-3.92,2.93-7.37,6.31-9.46l2.41-1.49c1.27-.78,2.37-1.82,3.23-3.03l3.65-5.15c1.22-1.72,3.86-1.37,4.6.59l2.22,5.91c.12.33.31.63.55.88l6.64,7c.77.81,1.95,1.04,2.97.59,1.34-.59,1.93-2.17,1.31-3.51l-1.98-4.2c-.35-.75-.33-1.61.06-2.34l2.77-5.2c.19-.35.29-.74.31-1.14l.41-11.9c.02-.53-.13-1.05-.41-1.5l-2.42-3.81c-.23-.36-.37-.78-.4-1.22l-.34-4.79c-.04-.63-.31-1.22-.76-1.66l-4.26-4.26c-.64-.64-.9-1.55-.7-2.43l2.8-12.21c.37-1.61.41-3.3.13-4.93l-1.53-8.66c-.51-2.89-2.03-5.5-4.29-7.39-3.01-2.51-4.66-6.28-4.46-10.19l.41-8.03c.12-2.41-.46-4.78-1.67-6.86l-3.15-5.4c-4.25-7.3-6.39-15.62-6.19-24.06l.09-3.87c.04-1.98.26-3.95.63-5.9l2.75-14.39c.25-1.32.54-2.62.88-3.92l4.01-15.6c.06-.25.16-.47.29-.7l2.16-3.59c1.17-1.94,1.78-4.16,1.78-6.42v-6.74c0-1.75-.37-3.48-1.08-5.09l-1.46-3.27c-.08-.18-.13-.37-.17-.55l-.07-.04c-.1-.06-.16-.17-.15-.28.19-2.05-.33-4.1-1.48-5.81l-.67-1.01c-1.18-1.77-1.68-3.93-1.39-6.03l.65-4.74c.26-1.93-.12-3.88-1.09-5.57l-1.1-1.89c-.5-.87-.88-1.8-1.11-2.77l-1.52-6.28c-.28-1.15-1.6-1.68-2.6-1.06-.27.17-.48.41-.63.69l-1.59,3.18c-.21.43-.59.74-1.04.88l-5.82,1.8c-1.17.36-2.35-.51-2.35-1.73,0-.73-.44-1.39-1.12-1.67l-4.1-1.67c-.82-.33-1.2-1.28-.83-2.09l.59-1.28c.17-.38.19-.82.03-1.21l-.54-1.39c-.37-.98-1.59-1.32-2.42-.67-.62.48-1.51.42-2.07-.13l-.33-.33c-.49-.49-1.25-.6-1.86-.26l-3.42,1.89c-.64.36-1,1.05-.94,1.78.1,1.02-.66,1.92-1.68,2l-.41.03c-.83.07-1.51.68-1.65,1.5l-.1.56c-.15.83-.85,1.45-1.7,1.5l-3.11.18c-.42.03-.82.2-1.13.48l-2.8,2.57c-.26.23-.57.39-.9.45l-7.73,1.43h-4.19c-1.06,0-1.93-.86-1.93-1.93s-.94-1.99-2.04-1.92l-1.41.08c-.99.06-1.86-.65-2.02-1.61l-.92-5.73c-.02-.12-.05-.23-.09-.34l-2.51-7.03c-.32-.9-.55-1.83-.69-2.77l-1.04-7.1c-.38-2.62-1.47-5.07-3.16-7.11l-3.87-4.69c-.67-.82-2-.31-1.95.76.08,1.49-.77,2.87-2.14,3.48l-1.94.86c-.83.37-1.78.41-2.64.11l-5.73-1.97c-1.11-.38-2.35-.16-3.26.59-1.13.93-2.73,1.02-3.97.25l-5.53-3.48c-.43-.27-.92-.44-1.42-.5l-11.92-1.38c-1.88-.21-3.67.88-4.31,2.66l-1.99,5.47c-.38,1.04-.94,2-1.65,2.85l-4.77,5.66c-.37.45-.88.78-1.45.94l-6.51,1.89c-1.25.36-2.12,1.5-2.14,2.8l-.21,11.19c-.03,1.6-.71,3.11-1.89,4.19l-2.48,2.28c-1.96,1.8-2.46,4.69-1.21,7.04.42.79.66,1.67.68,2.57l.26,9.32v7.16c0,.11,0,.21.02.32l.78,6.86c.03.2.02.4,0,.59,0,.05,0,.09.02.15l.44,19.57-.05-.02h0Z"/>
  <path class="st8" d="M996.24,325.14c.33.45.76.83,1.25,1.11l3.71,2.16c.7.41,1.27,1.01,1.62,1.74l1.38,2.76c.53,1.06,1.47,1.84,2.61,2.15h0c4.13,1.15,7.59,4,9.51,7.84l3.34,6.69c.96,1.92,2.36,3.59,4.07,4.88l2.71,2.03c2.5,1.88,4.3,4.55,5.09,7.58l.88,3.38c.42,1.59,1.52,2.92,3.02,3.61l7.43,3.43c1.38.64,2.43,1.81,2.92,3.26h0c.66,1.99,2.41,3.44,4.49,3.72l2.18.29c.85.11,1.65.49,2.28,1.07l4.53,4.21c.61.57,1.04,1.3,1.23,2.12l.53,2.29c.35,1.51,1.5,2.69,2.99,3.09l3.39.9c.71.19,1.47.19,2.19,0l14.74-4.09c.48-.13.97-.18,1.46-.14l10.29.86.32-1.51c.63-2.95,3.05-5.2,6.04-5.6l4.85-.66c.19-.03.37-.03.56-.03h5.53c.72,0,1.45-.09,2.14-.29l5.38-1.47c2.33-.64,4.26-2.28,5.27-4.48h0c.46-1.01,1.31-1.79,2.35-2.19l6.32-2.33c.52-.2,1.07-.28,1.63-.26l6.3.29c1.81.09,3.51-.88,4.37-2.49l.63-1.18c1-1.88,3.01-3.01,5.15-2.88l1.61.09c1.71.1,3.28,1,4.23,2.42.79,1.18,2.08,1.95,3.49,2.08l5.16.47c1.68.15,3.15,1.19,3.85,2.71.94,2.04,3.19,3.13,5.38,2.6l3.44-.83c2.79-.67,5.28-2.24,7.1-4.46h0c.87-1.06,2.06-1.8,3.39-2.13l6.7-1.61c1.74-.42,3.59-.07,5.06.96h0c1.45,1.02,3.27,1.37,5,.97l2.74-.63c.34-.08.67-.2.99-.37l6.95-3.62c.33-.17.64-.4.91-.66l-.23-1.24c-.2-1.11-1.13-1.94-2.25-2.02-1.44-.09-2.48-1.4-2.26-2.82l.71-4.58c.08-.48.28-.92.6-1.27l.75-.83c.99-1.1,1.66-2.44,1.93-3.89l.54-2.82c.17-.88.7-1.65,1.45-2.13.79-.49,1.33-1.32,1.48-2.24l.8-5.19c.13-.83.58-1.58,1.25-2.08l7.37-5.53c.9-.67,1.75-1.41,2.55-2.21l4.75-4.75c2.53-2.53,4.46-5.6,5.64-8.97.22-.63.19-1.33-.1-1.93l-1.12-2.37c-.52-1.1-.19-2.41.78-3.13.5-.37.85-.93.97-1.54l.65-3.23c.05-.26.06-.54.03-.8l-.52-4.41c-.03-.26-.1-.5-.2-.74l-3.28-7.37c-.15-.36-.38-.67-.65-.95l-1.23-1.22c-1.01-1.01-1.22-2.59-.49-3.82.57-.97,1.61-1.56,2.73-1.56h.77c.5,0,.99-.18,1.38-.5.73-.61.98-1.63.6-2.51l-2.03-4.72c-.06-.15-.11-.3-.14-.45l-.62-3.31c-.14-.71-.86-1.14-1.55-.91-2.08.69-4.36.41-6.2-.77-.9-.58-1.66-1.34-2.22-2.25l-2.87-4.58c-.57-.9-1.33-1.68-2.22-2.25l-1.21-.77c-1.12-.71-2.41-1.11-3.74-1.15l-7.9-.19c-1.68-.04-3.33.5-4.65,1.55l-.26.2c-1.28,1-2.85,1.55-4.47,1.55h-2c-.65,0-1.29.19-1.84.55l-2,1.34c-.55.36-1.18.55-1.84.55h-4.41c-.26,0-.53-.03-.78-.09l-8.21-1.99c-.94-.23-1.74-.87-2.18-1.74l-.31-.63c-.34-.68-.43-1.45-.27-2.2h0c.22-1.01-.03-2.07-.71-2.86l-1.19-1.41c-.69-.82-.93-1.92-.64-2.95.43-1.51-.3-3.12-1.73-3.79l-.66-.31c-.91-.43-1.57-1.25-1.78-2.23l-.9-4.14c-.19-.85-.02-1.74.47-2.46l2.03-3.05c.18-.26.31-.55.4-.86l.65-2.16c.09-.29.21-.57.38-.82l1.92-2.97c.72-1.11.68-2.55-.09-3.62l-2.36-3.28c-.21-.3-.37-.62-.48-.97l-1.21-4.1c-.11-.38-.24-.75-.39-1.11l-1.81-4.3c-.27-.65-.48-1.32-.61-2.01l-.82-4.07c-.14-.67-.34-1.34-.6-1.97l-.57-1.36c-.37-.89-.62-1.84-.73-2.8-.28-2.42.29-4.87,1.61-6.91l5.28-8.15,2.71-4.69c.43-.73,1.06-1.32,1.83-1.68h0c2.18-1.02,3.03-3.67,1.86-5.78l-.31-.57c-.38-.68-.56-1.45-.52-2.24l.47-8.91c.05-.98.45-1.91,1.11-2.62l3.11-3.32c.28-.31.49-.68.58-1.08l.72-3.06c.21-.92-.14-1.88-.88-2.45-.73-.55-1.09-1.47-.9-2.37l.76-3.77c.12-.58.12-1.17.02-1.76l-.33-1.87c-.27-1.53-1.28-2.83-2.69-3.49-1.11-.51-1.97-1.42-2.42-2.55l-2.02-5.04c-.22-.56-.35-1.16-.37-1.77l-.2-4.9c-.05-1.18-.48-2.31-1.25-3.22l-2.85-3.39c-.57-.67-.96-1.48-1.14-2.35l-.64-3.05c-.38-1.84.23-3.74,1.62-5.02.93-.85,1.52-2,1.68-3.24l.41-3.14c.17-1.3.56-2.56,1.17-3.73l2.57-4.95c.53-1.02,1.22-1.97,2.03-2.77l2.59-2.59c.71-.71,1.32-1.51,1.81-2.37,1.11-1.94,1.62-4.16,1.45-6.39l-.3-4.17c-.04-.62-.35-1.21-.83-1.6l-1.19-.98c-.82-.67-1.07-1.83-.6-2.78l.31-.61c.56-1.12.11-2.49-1.02-3.05h0c-.64-.32-1.39-.32-2.04,0l-1.36.68c-.79.39-1.74.3-2.42-.25l-2.41-1.9c-.47-.37-1.06-.54-1.66-.48l-6.96.77c-.25.03-.49.02-.73-.03l-6.37-1.39c-.2-.04-.39-.06-.59-.05l-5.78.26c-.42.02-.84-.08-1.21-.28l-1.97-1.09c-1.96-1.09-3.64-2.59-4.94-4.41l-.21-.3c-1.57-2.2-2.52-4.78-2.76-7.47l-.03-.37c-.34-3.98-2.25-7.66-5.3-10.23h0c-3.2-2.7-7.37-3.95-11.54-3.45l-2.54.31c-.69.08-1.37.21-2.04.39l-6.47,1.71c-1.91.51-3.68,1.46-5.15,2.79l-1.68,1.52c-1.64,1.48-3.64,2.5-5.81,2.95l-2.43.5c-2.01.42-4.12.11-5.93-.87-.71-.38-1.58-.31-2.22.17-.8.6-1.92.54-2.65-.14l-2.61-2.43c-.45-.42-1.06-.62-1.67-.54l-3.51.44c-.28.03-.56.02-.82-.06l-2.98-.85c-.58-.16-1.2-.12-1.75.13l-.91.42c-.96.43-2.1.23-2.85-.52-.87-.87-2.25-.99-3.25-.28l-.28.2c-.65.45-1.05,1.18-1.08,1.97l-.2,4.83c-.03.79-.43,1.51-1.07,1.97l-3.81,2.69c-.24.17-.45.38-.62.62l-4.64,6.66-3.48,2.82c-.91.74-2.05,1.15-3.23,1.15h-.57c-1.58,0-3.07.73-4.04,1.97l-.6.77-.47-.03c-2.59-.17-5.1.89-6.78,2.88-.46.54-1,1.03-1.58,1.44l-3.98,2.75c-1.96,1.35-3.22,3.5-3.47,5.86l-.02.14c-.09.92-1.1,1.45-1.91,1l-1.41-.77c.03.19.09.37.17.55l1.46,3.28c.71,1.6,1.08,3.34,1.08,5.1v6.75c0,2.26-.61,4.49-1.78,6.43l-2.16,3.6c-.13.22-.23.45-.29.7l-4.01,15.62c-.33,1.3-.62,2.6-.88,3.92l-2.75,14.41c-.37,1.95-.58,3.92-.63,5.9l-.09,3.87c-.2,8.45,1.95,16.78,6.19,24.09l3.15,5.41c1.21,2.08,1.79,4.47,1.67,6.87l-.41,8.04c-.2,3.91,1.45,7.69,4.46,10.2,2.25,1.88,3.78,4.5,4.29,7.4l1.53,8.67c.29,1.63.25,3.32-.13,4.93l-2.8,12.23c-.2.88.07,1.79.7,2.43l4.26,4.26c.44.44.72,1.04.76,1.67l.34,4.8c.03.43.17.85.4,1.22l2.42,3.81c.28.44.43.97.41,1.5l-.41,11.92c-.02.4-.12.79-.31,1.14l-2.77,5.21c-.39.73-.41,1.6-.06,2.35l1.98,4.2c.63,1.33.03,2.91-1.31,3.51-1.01.45-2.2.21-2.97-.6l-6.64-7.01c-.24-.26-.42-.55-.55-.88l-2.22-5.91c-.74-1.97-3.38-2.31-4.59-.6l-3.65,5.15c-.86,1.22-1.96,2.25-3.23,3.04l-2.41,1.49c-3.38,2.09-5.68,5.55-6.31,9.48l-.4,2.52c-.3,1.85-.96,3.61-1.97,5.19l-4.02,6.32c-.59.92-.94,1.98-1,3.07l-.69,10.66c-.09,1.26-.53,2.47-1.28,3.48l-5.65,7.53c.14.33.31.65.52.94l3.41,4.6v.05h0Z"/>
  <path class="st5" d="M792.34,297.65c.44.84,1.32,1.38,2.27,1.38h2.65c1.27,0,2.36.93,2.54,2.2l.18,1.27c.24,1.69,1.69,2.96,3.41,2.96,1.5,0,2.84.98,3.28,2.41l.79,2.52c.45,1.44,1.78,2.41,3.28,2.41h0c2.22,0,4.37.8,6.05,2.25l9.04,7.79c1.11.95,1.98,2.15,2.56,3.49l1.69,3.94c1,2.35,2.9,4.19,5.26,5.13l1.86.75c2.33.93,4.2,2.73,5.21,5.02l1.41,3.18c.41.93,1.33,1.52,2.35,1.52h3.32c.35,0,.69.07,1.01.2l4.44,1.9c.94.4,1.57,1.27,1.68,2.29.16,1.6,1.64,2.74,3.23,2.47l4.63-.77c3.43-.57,6.66,1.76,7.2,5.18l.25,1.55c.09.62-.03,1.25-.37,1.78l-.41.64c-1.44,2.26-1.72,5.07-.75,7.57l2.18,5.61c1.11,2.87,3.7,4.9,6.75,5.31,1.15.15,2.05,1.05,2.2,2.2l.25,1.87c.21,1.6,1.83,2.6,3.36,2.09h0c.75-.25,1.57-.14,2.23.3l3.14,2.09c.83.55,1.33,1.48,1.33,2.48,0,1.97,1.88,3.4,3.77,2.87l3.27-.91c.78-.21,1.61-.11,2.3.31l12.39,7.28c1.35.79,2.22,2.19,2.35,3.75.16,2.07,1.64,3.81,3.67,4.28l2.8.65c1.05.25,2.13.14,3.11-.31l8.53-3.96c1.86-.87,3.92-1.2,5.96-.97l4.56.51c2.81.31,5.07,2.42,5.59,5.2h0c.74,3.99,4.96,6.3,8.71,4.77l3.5-1.43c1.05-.42,1.95-1.17,2.56-2.13l.66-1.04c1-1.58,2.75-2.54,4.62-2.54h0c2.33,0,4.39-1.47,5.17-3.66l.61-1.73c.56-1.6,1.43-3.06,2.56-4.33l7.79-8.73c1.31-1.46,2.92-2.61,4.74-3.36l2.35-.97c1.7-.7,2.98-2.15,3.45-3.93h0c.7-2.61,2.4-4.83,4.73-6.19h0c3.14-1.82,5.08-5.17,5.08-8.81h0c0-1.86.59-3.67,1.67-5.17l2.34-3.23c1.27-1.75,3.14-2.98,5.24-3.45l4.67-1.04c.21-.05.42-.13.62-.23l.37-.2c-.65-.79-1.21-1.65-1.68-2.57l-3.34-6.68c-1.92-3.83-5.37-6.68-9.5-7.83h0c-1.13-.31-2.08-1.1-2.61-2.15l-1.38-2.75c-.37-.72-.93-1.33-1.62-1.73l-3.71-2.16c-.48-.28-.91-.66-1.25-1.11l-3.41-4.6c-.21-.29-.38-.6-.52-.93l-.09.12-8.98-5.23c-1.32-.77-2.33-1.98-2.84-3.43l-3.42-9.57c-.25-.7-.38-1.44-.38-2.18,0-2.87-1.9-5.4-4.65-6.22l-1.21-.36c-3.98-1.18-6.89-4.6-7.4-8.72l-.53-4.22c-.3-2.4-1.43-4.62-3.18-6.29l-4.97-4.71c-.7-.65-1.47-1.22-2.32-1.66l-11.96-6.3c-2.75-1.44-5.01-3.69-6.47-6.43l-2.67-5c-1.58-2.97-4.09-5.35-7.14-6.76l-5.3-2.47c-2.36-1.11-5.13-.93-7.34.45l-.41.26c-2.13,1.33-4.77,1.54-7.08.56l-5.98-2.52c-1.49-.63-2.74-1.71-3.58-3.09l-3.95-6.49c-.77-1.28-1.16-2.75-1.12-4.24l.32-10.21c.04-1.44.49-2.83,1.29-4.03,1-1.5,1.54-3.26,1.54-5.07v-9.57c0-.35.04-.7.14-1.04l1.58-6.01c.37-1.38,1.42-2.46,2.78-2.86h0c2.72-.8,3.8-4.06,2.1-6.33l-2.48-3.31c-.58-.77-.87-1.73-.81-2.69l.52-8.08c.2-2.98,1.56-5.77,3.8-7.75l3.75-3.31c2.92-2.58,4.31-6.49,3.66-10.34l-.43-2.58c-.25-1.49-.79-2.91-1.6-4.18l-2.92-4.63c-.9-1.42-2.1-2.63-3.53-3.53l-1.58-1c-3.12-1.97-5.09-5.35-5.26-9.03l-.09-1.86c-.06-1.26-.33-2.5-.8-3.66l-2.18-5.44c-1.02-2.56-3.57-4.18-6.32-4.03h0c-2.27.13-4.44-.96-5.7-2.85l-1.52-2.29c-.68-1.01-1.05-2.2-1.08-3.42l-.44-19.57c0-.05,0-.09-.02-.14-.14,1.58-1.59,2.79-3.24,2.56-.41-.06-.8-.2-1.15-.42l-3.82-2.47c-.55-.36-1.21-.51-1.85-.44l-5.17.55c-1.43.15-2.6,1.19-2.92,2.59h0c-.24,1.03-.94,1.89-1.91,2.32l-2.15.95c-.92.41-1.97-.16-2.14-1.15-.15-.91-1.06-1.48-1.95-1.22l-3.47,1.02s-.09.03-.14.03l-8.16,1.63c-1.48.3-2.62,1.49-2.85,2.97-.14.95-.67,1.8-1.45,2.37l-5.94,4.27c-.31.22-.56.51-.74.85l-1.81,3.39c-.24.44-.6.81-1.05,1.04l-3.94,2.05c-1.5.77-1.8,2.78-.61,3.97.42.42.68.98.72,1.57l.51,6.64c.02.25.02.51-.02.76l-.34,3.06c-.14,1.29.34,2.57,1.3,3.45,1.12,1.02,1.58,2.58,1.19,4.05l-.32,1.21c-.17.65-.18,1.33-.03,1.99l1.13,4.75c.1.44.15.9.14,1.36l-.26,10.83c-.02.58.37,1.1.94,1.23.77.19,1.16,1.04.82,1.74l-2.09,4.36c-.58,1.21-.61,2.61-.09,3.84.62,1.45.46,3.13-.42,4.44l-3.15,4.64c-.4.59-.94,1.08-1.55,1.43l-7.24,4.1c-.64.36-1.37.52-2.09.46l-2.98-.25c-1.85-.15-3.5,1.1-3.87,2.91l-1.38,6.93c-.08.38-.14.77-.19,1.16l-.51,4.21c-.42,3.42-1.96,6.6-4.4,9.03h0c-.95.95-2.01,1.79-3.15,2.49l-1.81,1.11c-.29.18-.52.43-.67.74l-.93,1.85c-.23.47-.65.81-1.16.94l-2.44.65c-.8.21-1.35.93-1.35,1.76,0,1.26-1.24,2.13-2.42,1.72l-1.3-.46c-.94-.33-1.97-.29-2.89.12l-1.56.71c-1.79.81-2.69,2.81-2.12,4.68l1.44,4.67,2.7,8.1c.03.09.08.19.12.28l4.1,7.68c.48.88,1.13,1.66,1.93,2.27l1.45,1.11c1.61,1.22,2.6,3.08,2.74,5.11h0c.06.93.31,1.84.72,2.67l1.51,3.03c.4.8.65,1.67.71,2.56l.44,5.26c.04.48-.03.96-.21,1.4l-1.68,4.18c-.32.8-.96,1.43-1.76,1.73-1.52.59-2.33,2.26-1.84,3.82l2.16,6.85c.37,1.17,1.49,1.92,2.7,1.82.98-.09,1.91.39,2.43,1.21l.34.54c1.2,1.92,1.59,4.23,1.08,6.44l-1.91,8.27c-.03.13-.07.26-.12.38l-1.51,3.79s-.02.04-.03.07c.12.14.22.3.31.46l2.51,4.77h.04Z"/>
  <path class="st8" d="M753.88,324.35h0c1.23,2.67,4.05,4.21,6.95,3.83l.74-.1c.83-.11,1.68-.05,2.5.17l1.91.54c2.95.83,4.88,3.67,4.54,6.72-.21,1.89.45,3.77,1.8,5.12l3.85,3.85c.31.31.52.69.61,1.11l.96,4.34c.48,2.14,1.64,4.06,3.33,5.46h0c1.88,1.57,3.11,3.78,3.46,6.21l.37,2.62c.3,2.09-.25,4.22-1.51,5.93-.49.64-.59,1.49-.28,2.23l2.55,6.21c.11.27.17.57.17.87v5.01c0,2.02,1.11,3.88,2.88,4.85h0c1.39.76,2.38,2.08,2.74,3.62l1.11,4.9c.42,1.85.42,3.76.02,5.6l-1.14,5.13c-.05.23-.07.47-.04.71l.68,7.15c.14,1.42.61,2.77,1.4,3.95l.32.48c1.38,2.07,1.79,4.62,1.14,7.03-.23.86-.33,1.75-.3,2.63l.15,3.53c.15,3.47-1.79,6.68-4.93,8.15l-7.98,3.75c-1.03.49-2.14.8-3.26.95l-2.71.34c-1.79.22-3.27,1.48-3.79,3.21h0c-.34,1.13-1.1,2.09-2.13,2.66l-3.62,2.04c-1.34.75-2.19,2.12-2.3,3.64l-.48,6.63c-.17,2.36.93,4.63,2.87,5.98l15.84,10.93c1.11.77,2.43,1.17,3.79,1.17,2.41,0,4.64,1.3,5.82,3.41l1.19,2.12c.67,1.2,1.7,2.15,2.94,2.75l7.31,3.5c.9.44,1.88.66,2.88.66h12.01c1.67,0,3.29-.53,4.65-1.52,1.89-1.38,4.29-1.84,6.56-1.28l3.06.77c.48.12.96.2,1.45.22l12.87.76c1.16.07,2.08,1,2.14,2.16l.29,5.48c.04.77.46,1.46,1.12,1.85l3.8,2.22c.43.25.76.63.95,1.08l2.15,5.11c.78,1.85,2.36,3.24,4.3,3.77l2.59.71c2.67.73,4.59,3.06,4.8,5.82l.7,9.28c.22,2.99,1.08,5.89,2.52,8.52l2.83,5.2c.32.59.89,1.01,1.55,1.14l3.8.76c1.16.23,2.3-.47,2.63-1.61.21-.75.8-1.34,1.55-1.56l4.88-1.44c1.12-.33,2.1-1.03,2.77-1.99l.34-.49c1.12-1.61,3.07-2.45,5.01-2.15h0c1.74.27,3.23,1.41,3.95,3.03l1.83,4.19c.17.38.29.78.36,1.19l1.81,10.52c.21,1.23,1.37,2.05,2.59,1.86l5.48-.87c.66-.1,1.25-.5,1.59-1.07l1.22-2.03c.57-.95,1.76-1.35,2.79-.95,3.15,1.26,6.74.73,9.39-1.4l1.33-1.06c.85-.68,1.6-1.47,2.25-2.34l1.93-2.64c1.4-1.93,3.34-3.4,5.56-4.24l3.19-1.22c2.01-.77,3.78-2.04,5.14-3.7l2.82-3.43c.99-1.19,1.46-2.73,1.35-4.28-.17-2.21.88-4.32,2.74-5.51l4.32-2.77c2.72-1.75,4.94-4.17,6.45-7.03l2.46-4.69c.2-.4.4-.8.58-1.22l3.14-7.23c.7-1.6,2.41-2.51,4.12-2.19,2.3.43,4.42-1.34,4.42-3.68v-1.73c0-1.56.82-3,2.14-3.8,1.49-.89,2.32-2.58,2.12-4.32l-.28-2.36c-.19-1.62.52-3.21,1.85-4.15l2.68-1.88c2.8-1.96,6.23-2.82,9.62-2.4l9.15,1.12c2.78.34,5.56-.67,7.48-2.72l1.27-1.34c1.65-1.76,2.5-4.12,2.36-6.53h0c-.15-2.56.85-5.07,2.72-6.82h0c2.48-2.32,5.9-3.37,9.26-2.85l3.73.57c1.79.27,3.57-.49,4.6-1.97.95-1.35,2.54-2.12,4.19-2.01l8.28.54c1.99.13,3.85-1.01,4.64-2.84l4.26-9.74c.56-1.28,1.39-2.42,2.42-3.36,1.94-1.75,4.49-2.65,7.1-2.5l2.73.15c.98.05,1.97-.04,2.92-.28l6.39-1.6c2.08-.52,3.93-1.71,5.27-3.38l.09-.1c.97-1.21,2.43-1.92,3.98-1.92,2.74,0,4.99-2.17,5.09-4.91l.25-6.63c.02-.57.26-1.12.66-1.52l2.78-2.78c.46-.46.7-1.1.66-1.75l-.56-9.33c-.2-3.18-1.14-6.26-2.76-8.99l-.82-1.4s-.04-.06-.06-.09l-.32,1.51-10.29-.86c-.49-.04-.99,0-1.46.14l-14.74,4.1c-.72.2-1.47.2-2.19,0l-3.39-.9c-1.49-.4-2.64-1.58-2.99-3.09l-.53-2.29c-.19-.81-.61-1.55-1.23-2.12l-4.53-4.22c-.63-.59-1.43-.96-2.28-1.07l-2.18-.29c-2.08-.28-3.83-1.72-4.49-3.72h0c-.48-1.44-1.53-2.62-2.92-3.26l-7.44-3.43c-1.5-.69-2.6-2.02-3.02-3.61l-.88-3.38c-.79-3.03-2.59-5.71-5.09-7.59l-2.71-2.04c-.89-.67-1.7-1.45-2.4-2.31l-.37.2c-.2.1-.41.18-.62.23l-4.67,1.04c-2.11.47-3.98,1.7-5.25,3.46l-2.34,3.24c-1.09,1.51-1.68,3.32-1.68,5.18h0c0,3.64-1.94,7.01-5.09,8.83h0c-2.34,1.35-4.04,3.59-4.74,6.2h0c-.48,1.78-1.75,3.24-3.45,3.93l-2.36.97c-1.81.75-3.44,1.9-4.75,3.36l-7.8,8.75c-1.13,1.26-2,2.73-2.56,4.33l-.61,1.74c-.77,2.2-2.85,3.67-5.17,3.67h0c-1.88,0-3.62.96-4.63,2.55l-.66,1.04c-.61.96-1.51,1.71-2.56,2.14l-3.5,1.43c-3.76,1.53-7.98-.78-8.72-4.78h0c-.51-2.78-2.79-4.9-5.6-5.21l-4.57-.51c-2.04-.23-4.1.11-5.96.97l-8.53,3.97c-.97.45-2.07.56-3.11.31l-2.8-.65c-2.03-.48-3.51-2.21-3.68-4.29-.12-1.56-1-2.96-2.35-3.76l-12.4-7.3c-.7-.41-1.53-.52-2.3-.31l-3.28.91c-1.9.53-3.78-.9-3.78-2.88,0-1-.5-1.93-1.33-2.49l-3.15-2.1c-.66-.44-1.49-.55-2.24-.3h0c-1.53.51-3.15-.5-3.36-2.09l-.25-1.87c-.15-1.15-1.06-2.05-2.2-2.21-3.05-.41-5.64-2.44-6.76-5.32l-2.18-5.62c-.97-2.5-.69-5.32.75-7.59l.41-.64c.34-.53.47-1.16.37-1.78l-.25-1.55c-.55-3.43-3.78-5.77-7.21-5.19l-4.64.77c-1.59.26-3.07-.87-3.23-2.48-.1-1.01-.74-1.89-1.68-2.29l-4.44-1.91c-.32-.14-.66-.2-1.01-.2h-3.32c-1.01,0-1.93-.6-2.35-1.52l-1.41-3.19c-1.02-2.29-2.89-4.1-5.21-5.03l-1.86-.75c-2.36-.95-4.26-2.8-5.27-5.14l-1.69-3.95c-.58-1.34-1.45-2.55-2.56-3.5l-9.04-7.8c-1.68-1.46-3.84-2.26-6.06-2.26h0c-1.51,0-2.84-.98-3.28-2.42l-.79-2.53c-.45-1.44-1.78-2.42-3.28-2.42-1.71,0-3.16-1.26-3.41-2.96l-.18-1.28c-.18-1.27-1.27-2.21-2.54-2.21h-2.65c-.95,0-1.83-.53-2.27-1.38l-2.51-4.78c-.09-.16-.2-.31-.31-.46-.54,1.25-1.76,2.07-3.12,2.07-.69,0-1.37.21-1.93.6l-2.51,1.74c-.39.27-.71.62-.96,1.02l-1.82,2.98c-.71,1.16-2.03,1.79-3.38,1.59l-.63-.09c-.92-.13-1.85.12-2.58.69l-1.63,1.29c-.98.77-2.18,1.23-3.42,1.31h0c-1.71.11-3.29.93-4.37,2.25l-4.15,5.04c-1.27,1.53-3.16,2.34-5.08,2.25l-.32,6.15c-.06,1.08.15,2.17.6,3.16v.05Z"/>
  <path class="st5" d="M1263.23,420.45l-1.12-.83c-1.76-1.32-2.72-3.44-2.55-5.63l.14-1.76c.13-1.55.66-3.04,1.53-4.32h0c1.29-1.88,1.81-4.19,1.45-6.44l-.72-4.46c-.16-1-.49-1.96-.97-2.84l-.02-.03c-.72-1.3-1.09-2.76-1.09-4.25v-1.57c0-1.27.47-2.49,1.32-3.43.92-1.02,1.39-2.36,1.31-3.73l-.03-.5c-.09-1.61-.94-3.07-2.28-3.96l-1.26-.83c-.68-.45-.89-1.35-.49-2.06.31-.54.26-1.21-.1-1.7l-.54-.71c-.41-.54-1.13-.76-1.77-.53l-1.77.65c-.33.12-.7.13-1.03,0l-8.68-2.98c-.39-.14-.76-.34-1.07-.6l-2.86-2.38c-1.25-1.04-3.08-1.05-4.34-.02-.76.62-1.74.88-2.7.72l-7.1-1.15c-.56-.09-1.13.02-1.63.3l-2.03,1.17c-1.47.85-3.35-.02-3.65-1.68l-.03-.16c-.27.26-.58.48-.91.65l-6.96,3.62c-.32.16-.65.29-.99.37l-2.74.63c-1.73.4-3.55.04-5.01-.97h0c-1.47-1.03-3.31-1.38-5.07-.96l-6.7,1.61c-1.34.32-2.52,1.06-3.39,2.13h0c-1.82,2.22-4.32,3.78-7.11,4.46l-3.44.83c-2.19.53-4.44-.57-5.38-2.6-.71-1.53-2.17-2.56-3.86-2.71l-5.17-.47c-1.42-.13-2.71-.89-3.49-2.07-.95-1.43-2.52-2.32-4.23-2.42l-1.61-.09c-2.13-.13-4.15,1-5.15,2.88l-.63,1.18c-.85,1.6-2.55,2.57-4.38,2.49l-6.31-.29c-.55-.03-1.11.06-1.63.26l-6.33,2.33c-1.05.38-1.89,1.17-2.35,2.19h0c-1.01,2.2-2.93,3.84-5.27,4.48l-5.39,1.47c-.7.19-1.42.29-2.14.29h-5.54c-.19,0-.37,0-.56.03l-4.86.66c-3,.41-5.42,2.64-6.05,5.6h0s.04.07.06.1l.83,1.39c1.63,2.73,2.57,5.81,2.76,8.98l.56,9.32c.04.65-.2,1.28-.66,1.74l-2.79,2.78c-.41.41-.65.95-.67,1.52l-.25,6.61c-.02.39-.08.77-.18,1.14.15.48.26.97.27,1.48l.11,3.12c.04,1.24.52,2.43,1.35,3.37l.65.73c1.11,1.24,1.57,2.92,1.26,4.55l-.28,1.49c-.39,2.08.15,4.23,1.47,5.88,1.03,1.29,1.59,2.89,1.59,4.54v4.74c0,.95-.19,1.89-.55,2.77l-1.96,4.74c-.47,1.14-1.22,2.14-2.19,2.91l-1.53,1.22c-2.5,1.99-4.08,4.91-4.4,8.08l-.39,3.87c-.31,3.16.66,6.33,2.69,8.77.9,1.09,1.35,2.48,1.23,3.89l-.85,9.92c-.2,2.4,1.07,4.67,3.23,5.75,1.8.89,3.01,2.64,3.22,4.64l.55,5.25c.02.19.03.37.03.56v9.35c0,1.76.78,3.43,2.13,4.55l4.43,3.68c1.11.93,1.85,2.22,2.06,3.65l.2,1.26c.25,1.6,1.13,3.02,2.46,3.95,1.58,1.1,2.53,2.92,2.53,4.85v3.42c0,2.68.62,5.31,1.82,7.7.93,1.84,1.51,3.85,1.73,5.9l.45,4.24c.09.92.12,1.84.07,2.76l-.28,5.11c-.07,1.16.25,2.3.89,3.27l1.24,1.85c.92,1.38,2.42,2.25,4.07,2.37l7.59.56c1.42.1,2.75.77,3.68,1.85l.21.25c.72.83,1.67,1.43,2.73,1.7l10.59,2.73c1.32.34,2.72.17,3.91-.49,1.93-1.05,4.32-.82,6,.59l2.4,2c1.82,1.52,4.44,1.66,6.41.34l2.43-1.62c.75-.5,1.62-.8,2.51-.88l5.2-.45c2.57-.22,4.93-1.49,6.55-3.49h0c.77-.95,1.71-1.75,2.79-2.35l6.36-3.53c.2-.11.41-.21.62-.3l8.4-3.34c.14-.06.29-.11.44-.15v-.02c-.33-.68-.36-1.46-.09-2.17l1.45-3.75c.38-.99.36-2.07-.06-3.04-.52-1.21-.42-2.59.27-3.72l5.96-9.68c.5-.82.54-1.83.12-2.69l-.76-1.51c-.59-1.18-.26-2.61.77-3.42l9.97-7.74c1.01-.79,2.09-1.48,3.23-2.08h0c4.91-2.58,8.65-6.93,10.46-12.17l1.49-4.32c.41-1.18.72-2.4.91-3.63l1.59-9.85c.38-2.34,1.13-4.59,2.24-6.68l5.21-9.87c1.11-2.09,3.24-3.44,5.61-3.54l1.41-.06c1.37-.06,2.69-.54,3.78-1.37h0c1.47-1.13,2.4-2.82,2.57-4.67l.17-1.84c.12-1.3-.15-2.61-.78-3.76l-7.19-13.3c-1.35-2.5-.96-5.59.98-7.68l.16-.17c.38-.41.71-.87.97-1.36l1.8-3.39c.37-.7.87-1.33,1.46-1.84l2.68-2.32c.66-.57,1.2-1.27,1.58-2.07l2.46-5.13c.42-.87.63-1.81.63-2.77v-7.23c0-.53.07-1.05.19-1.56.62-2.5-.31-5.13-2.38-6.68h.02Z"/>
  <path class="st8" d="M423.32,500.11l7.08,8.42,9.96,12.79c1.91,2.45,4.45,4.34,7.34,5.47l.36.14c2.31.89,4.38,2.27,6.1,4.05l9.98,10.27c2.01,2.07,4.41,3.7,7.06,4.82l1.14.48c2.36,1,4.53,2.41,6.4,4.17l13.73,12.96,6.27-3.58c2.19-1.25,3.92-3.19,4.91-5.51l.34-.8c.58-1.36,1.42-2.59,2.47-3.64l4.47-4.46c1.46-1.46,2.51-3.29,3.03-5.3.2-.79.42-1.66.65-2.51.82-3.17,2.92-5.85,5.82-7.4l.09-.05c1.55-.83,2.89-2.01,3.9-3.43l3.56-5c2.29-3.21,6.64-4.18,10.08-2.24l1.4.79c1.97,1.11,3.36,3.04,3.78,5.28.68,3.58,3.77,6.19,7.42,6.27l6.43.14c4.4.1,8.27-2.91,9.25-7.19.2-.85.38-1.67.55-2.36.33-1.45,1-2.8,1.98-3.95l.06-.07c2.19-2.59,5.66-3.76,8.97-3.02l2.39.54c1.69.37,3.46-.2,4.61-1.49l.6-.67c.78-.88,1.22-2.02,1.22-3.19v-11.75c0-1.82,1.03-3.48,2.65-4.3l2.81-1.4c1.21-.6,2.1-1.68,2.47-2.98l1.03-3.59c.15-.54.4-1.05.73-1.5l7.59-10.49c.97-1.34,2.56-2.08,4.21-1.97l1.05.07c1.93.13,3.75-.92,4.63-2.66l.03-.07c.79-1.58,2.4-2.58,4.17-2.58h6.8c1.17,0,2.29-.42,3.16-1.19l4.14-3.62c1.17-1.02,1.77-2.53,1.62-4.07-.16-1.71-.37-3.95-.52-5.48-.1-1.11-.6-2.15-1.4-2.96l-.05-.05c-2.14-2.14-2.31-5.56-.4-7.91l5.21-6.38c1-1.22,2.35-2.13,3.86-2.58l5.03-1.5c1.18-.36,2.18-1.15,2.79-2.22h0c1.8-3.14,4.27-5.83,7.24-7.89l7.43-5.14,4.16-15.39c.29-1.07.46-2.18.51-3.29l.26-6.34c.09-1.99-.23-3.97-.92-5.83l-2.91-7.86c-.43-1.15-.71-2.34-.84-3.55l-.92-8.26c-.17-1.54-.49-3.06-.96-4.54l-.77-2.45c-.83-2.64-.84-5.47-.02-8.13l1.03-3.31c1.17-3.78,3.94-6.86,7.57-8.44l4.31-1.87c.36-.15.74-.27,1.12-.33l7.41-1.23c.19-.03.38-.08.57-.13l4.97-1.46c1.63-.49,2.99-1.62,3.76-3.15.71-1.41,1.94-2.5,3.43-3.04l2.82-1c.86-.31,1.63-.8,2.28-1.44l1.91-1.91c.22-.22.47-.42.73-.6l.37-.25c0-.41.11-.83.34-1.22l3.39-5.9c.07-.12.14-.23.23-.33l3.56-4.37c1.86-2.29,2.29-5.42,1.11-8.12l-2.29-5.24c-.04-.09-.09-.19-.14-.28l-2.19-4.17c-.51-.96-.63-2.08-.35-3.13.47-1.77-.22-3.64-1.73-4.67l-.88-.61c-.95-.65-1.61-1.67-1.81-2.8l-1.6-8.93c-.14-.79-.5-1.53-1.05-2.13l-.82-.9c-.72-.79-1.11-1.83-1.11-2.89v-8.89c0-.09,0-.19,0-.28l-.54-8.45c-.03-.58-.2-1.15-.49-1.65l-3.41-6.04c-.09-.15-.16-.31-.22-.47l-.89-2.23c-.52-1.3-.3-2.79.6-3.88.82-.99,1.08-2.34.71-3.57l-3.63-11.85c-.23-.74-.67-1.4-1.28-1.89l-7.45-5.96c-1.48-1.18-3.39-1.69-5.26-1.41l-3.62.55c-2.2.33-4.43-.43-5.96-2.07l-1.62-1.72c-.45-.48-.84-1-1.17-1.57l-1.62-2.76c-.24-.41-.62-.71-1.07-.87l-2.38-.77c-1.03-.33-1.59-1.44-1.23-2.47l.42-1.18c.11-.32.14-.68.07-1.01l-.63-3.15c-.26-1.27-1.66-1.93-2.8-1.33l-5.88,3.13c-.11.06-.23.11-.35.14l-5.68,1.72c-2.35.71-4.58,1.74-6.64,3.08l-4.42,2.87c-1.7,1.1-3.17,2.54-4.32,4.23l-2.65,3.89c-.85,1.25-1.51,2.63-1.96,4.07l-1.23,3.97c-.84,2.7-2.41,5.12-4.54,6.98-1.6,1.39-3.46,2.45-5.49,3.08l-7.09,2.23c-1.5.47-3.04.73-4.61.77-2.76.08-5.45.84-7.83,2.23h0c-1.82,1.06-3.42,2.46-4.7,4.12l-2.15,2.77c-.93,1.2-2.02,2.26-3.23,3.15l-2.67,1.97c-4.13,3.05-9.01,4.96-14.11,5.53l-6.4.72-15.57,2.29c-1.68.25-3.31.7-4.86,1.34l-1.51.62c-.71.29-1.51-.05-1.79-.76-.23-.59-.82-.94-1.45-.86l-2.2.3c-.4.05-.81-.08-1.11-.35l-10.98-10.17c-.38-.35-.92-.48-1.41-.34l-1.01.29c-.42.12-.88.05-1.24-.2l-7.54-5.17c-.67-.46-1.45.42-.9,1.03l4.52,4.98c.04.05.09.1.13.16l2.76,4.05c.13.2.31.36.51.47l13.19,7.23c1.74.95,2.58,3,1.99,4.9l-5.34,17.35c-.95,3.09-.96,6.39-.02,9.48l1.68,5.54c.28.92.23,1.9-.14,2.79h0c-.43,1.05-1.28,1.88-2.33,2.29l-1.3.51c-.73.29-1.37.77-1.84,1.4l-1.2,1.63c-.37.51-.86.93-1.41,1.22l-5.96,3.13c-.19.09-.39.16-.6.18-1.36.13-1.96,1.78-.99,2.75l.2.2c.26.26.42.6.46.95l.13,1.06c.34,2.91,1.31,5.7,2.85,8.19l.51.83.19.29c2.08,3.16,3.12,6.88,3.02,10.66h0c-.13,4.38-1.8,8.58-4.73,11.83l-.99,1.11c-1.36,1.52-1.63,3.72-.66,5.53.69,1.28.97,2.75.8,4.19l-.16,1.43c-.19,1.66-.95,3.19-2.15,4.34l-1.72,1.65c-.57.54-1.04,1.18-1.4,1.88l-1.91,3.71c-.25.47-.31,1.01-.2,1.53h0c.29,1.36-.69,2.66-2.07,2.77l-2.21.18c-1.1.08-2,.95-2.11,2.06l-.49,4.76c-.12,1.16-.79,2.19-1.81,2.75-.78.44-1.38,1.17-1.65,2.02l-1.11,3.43c-.27.83-.41,1.7-.41,2.57v3.4c0,1.77-.56,3.49-1.6,4.93l-.32.43c-.6.82-.92,1.81-.92,2.82v.47c0,.76-.19,1.52-.53,2.2l-1.18,2.3c-.71,1.36-.71,2.97-.03,4.34.33.66.51,1.4.51,2.14v4.74c0,.35.03.69.11,1.03l2.31,10.55c.04.19.12.37.23.54l1.33,1.99c.38.57.35,1.32-.07,1.85-.33.43-.42,1-.24,1.51l1.46,4.06c.3.82-.13,1.74-.96,2.04l-5.08,1.81c-.54.2-.94.65-1.03,1.22l-.63,3.59c-.18,1-.02,2.02.44,2.92l4.41,8.54c.24.47.36.99.33,1.51l-.27,6.61c-.03.7-.31,1.38-.78,1.9-.66.71-.92,1.7-.72,2.64l.36,1.69c.15.68.52,1.28,1.07,1.71.92.71,1.48,1.79,1.53,2.95.06,1.49-.72,2.88-2.02,3.6l-2.19,1.21c-.54.3-1.01.72-1.36,1.24l-3.33,4.94c-.79,1.17-.89,2.68-.26,3.94l1.18,2.36c.3.6.44,1.27.41,1.94l-.19,4c-.07,1.45-1.27,2.6-2.73,2.6-1.19,0-2.24.77-2.6,1.91l-.03.09c-.17.54-.51,1.03-.97,1.37l-2.8,2.1c-.48.36-1.09.53-1.68.47l-6.82-.68c-.71-.07-1.34-.45-1.74-1.03-.73-1.07-2.18-1.36-3.28-.67l-3.15,2.01c-.48.3-1.04.43-1.59.36l-2.83-.36c-.37-.04-.72-.18-1.04-.38l-2.52-1.68c-.95-.64-2.25-.29-2.75.73-.28.57-.83.95-1.46,1.04l-3.29.43c-1.66.21-3.32-.34-4.52-1.5l-1.89-1.84c-1.46-1.42-1.91-3.59-1.14-5.47.2-.49.19-1.05-.04-1.54l-.74-1.56c-.31-.65-.29-1.43.07-2.06l4.07-7.25c.85-1.52-.27-3.38-2.02-3.34l-1.77.04c-.75.02-1.45.42-1.85,1.05l-5.14,8.16c-.16.26-.38.49-.64.66l-4.73,3.2s-.04.03-.07.05c.23.19.45.4.65.64h-.07Z"/>
  <path class="st5" d="M501.39,572.37c.2.18.4.35.63.49l9.34,5.84c.91.57,1.76,1.21,2.57,1.92l6.57,5.81c2.77,2.45,5.97,4.36,9.44,5.63l4.6,1.69c2.58.94,4.83,2.62,6.49,4.83,1.06,1.42,2.38,2.63,3.9,3.57l3.32,2.05c2.66,1.64,5.71,2.51,8.83,2.51h0c3.15,0,6.2,1.13,8.6,3.18h0c1.79,1.53,3.96,2.56,6.27,2.97l.66.12c5.46.97,10.11,4.51,12.51,9.5h0c1.32,2.74.97,5.99-.89,8.39l-.77.98c-1.64,2.11-2.12,4.91-1.28,7.45l2.55,7.66c.43,1.29,1.5,2.27,2.82,2.6l13.99,3.41c.6.14,1.19.32,1.77.53l6.14,2.18c4.64,1.64,9.74,1.33,14.14-.87h0c2.14-1.06,4.46-1.7,6.84-1.86l6.48-.45c2.15-.14,4.32,0,6.43.47l7.92,1.73c2.29.5,4.68-.08,6.49-1.56,1.41-1.16,3.19-1.77,5.02-1.73l15.79.34c1.65.03,3.26-.47,4.6-1.44,1.9-1.38,4.32-1.8,6.57-1.13l5.63,1.67c2.06.61,4.28.31,6.1-.82l6.33-3.92c.31-.19.6-.4.88-.64l10.68-8.98c.26-.22.56-.41.88-.56l9.7-4.5c1.6-.74,2.52-2.46,2.24-4.21l-.74-4.71c-.11-.72-.42-1.38-.89-1.93l-6.25-7.43c-.26-.31-.54-.63-.83-.93l-3.87-4.13c-1.73-1.84-3.14-3.95-4.2-6.24l-1.04-2.27c-1.6-3.48-4.03-6.52-7.07-8.85l-1.16-.88c-2.55-1.95-4.73-4.34-6.44-7.07l-4.07-6.51c-1.69-2.71-3.86-5.09-6.4-7.04h0c-2.63-2.01-4.86-4.5-6.58-7.33l-2.61-4.31c-1.33-2.19-.26-5.04,2.18-5.82l2.9-.93c2.49-.8,4.7-2.3,6.34-4.33,2.21-2.72,3.28-6.21,2.96-9.71l-.6-6.57c-.19-2.04-1.08-3.94-2.53-5.39h0c-1.52-1.52-2.43-3.55-2.54-5.7l-.53-9.52c-.13-2.36.75-4.67,2.42-6.34h0c1.56-1.56,2.43-3.67,2.43-5.87v-4.83c0-.61-.15-1.22-.42-1.77l-.33-.66c-1.14-2.27-.33-5.04,1.85-6.34h0c1.81-1.09,2.71-3.22,2.23-5.28l-1.34-5.77c-.68-2.9-2.61-5.35-5.27-6.69l-5.46-2.73c-.9-.45-1.9-.69-2.91-.69-3.32,0-6.1-2.49-6.47-5.79l-.92-8.25c-.17-1.54.57-3.03,1.9-3.83h0c1.45-.87,2.19-2.56,1.83-4.22l-1.69-7.91c-.29-1.37-1.29-2.48-2.61-2.92l-1.5-.5c-1.18-.39-2.11-1.32-2.5-2.5l-1.8-5.41c-.22-.65-.6-1.24-1.12-1.7l-3.06-2.72c-.1-.09-.2-.17-.31-.25l-7.42,5.14c-2.98,2.06-5.45,4.76-7.24,7.9-.61,1.07-1.61,1.86-2.79,2.22l-5.03,1.51c-1.51.46-2.87,1.35-3.86,2.59l-5.22,6.39c-1.91,2.35-1.74,5.77.4,7.92l.05.05c.81.81,1.29,1.85,1.4,2.96.14,1.52.36,3.77.52,5.49.15,1.54-.46,3.06-1.62,4.08l-4.14,3.63c-.88.77-2,1.19-3.17,1.19h-6.81c-1.76,0-3.38,1-4.17,2.58l-.03.07c-.88,1.75-2.7,2.79-4.63,2.66l-1.06-.07c-1.65-.11-3.24.64-4.21,1.98l-7.6,10.51c-.33.45-.58.96-.73,1.5l-1.03,3.59c-.37,1.29-1.27,2.38-2.48,2.98l-2.81,1.41c-1.63.82-2.66,2.48-2.66,4.31v11.77c0,1.18-.43,2.32-1.22,3.19l-.6.67c-1.16,1.29-2.92,1.87-4.61,1.49l-2.39-.54c-3.32-.74-6.78.43-8.98,3.02l-.06.07c-.98,1.16-1.65,2.5-1.98,3.96-.16.7-.35,1.52-.54,2.37-.99,4.29-4.86,7.31-9.26,7.2l-6.43-.14c-3.64-.09-6.74-2.7-7.42-6.28-.43-2.23-1.81-4.16-3.79-5.29l-1.4-.79c-3.44-1.94-7.8-.98-10.09,2.25l-3.57,5.01c-1.02,1.43-2.36,2.62-3.91,3.44l-.09.05c-2.9,1.55-5.01,4.23-5.82,7.41-.22.86-.44,1.73-.65,2.51-.52,2.01-1.57,3.83-3.03,5.31l-4.47,4.47c-1.05,1.05-1.88,2.28-2.47,3.64l-.34.8c-1,2.32-2.72,4.27-4.92,5.52l-6.11,3.49c.2.35.44.67.73.95l8.01,7.61v-.03h0Z"/>
  <path class="st5" d="M1250.42,649.42h0c.56-1.46-.08-3.11-1.47-3.81l-2.02-1.01c-.89-.44-1.92-.43-2.79.04l-3.39,1.83c-1.01.55-2.23.56-3.26.05-.84-.42-1.81-.49-2.7-.2l-3.18,1.06c-.88.29-1.67.78-2.31,1.43l-3.66,3.66c-1.12,1.12-2.62,1.74-4.2,1.74-2.13,0-4.09-1.14-5.15-2.99l-1.89-3.31c-.22-.39-.49-.75-.79-1.08l-3.95-4.28c-.99-1.07-1.82-2.27-2.47-3.59h0c-1.59-3.19-2.03-6.82-1.27-10.3l.49-2.18c.2-.87.46-1.72.8-2.54l1.44-3.5c.98-2.38,1.35-4.97,1.08-7.52l-.3-2.85c-.18-1.72-.08-3.46.32-5.15l2.85-12.22,2.26-3.22c.71-1.01.66-2.36-.1-3.32l-1.3-1.64c-.78-.98-2.14-1.31-3.29-.8-1.38.61-2.99,0-3.63-1.36l-2.27-4.82c-.15.04-.3.09-.44.15l-8.39,3.35c-.21.08-.42.18-.62.3l-6.36,3.53c-1.07.6-2.02,1.4-2.78,2.35h0c-1.61,2.01-3.97,3.28-6.54,3.5l-5.19.45c-.89.08-1.76.38-2.51.88l-2.43,1.62c-1.97,1.32-4.59,1.18-6.41-.34l-2.4-2c-1.69-1.41-4.07-1.64-6-.59-1.19.66-2.6.83-3.91.49l-10.58-2.73c-1.06-.27-2.02-.87-2.73-1.7l-.21-.25c-.93-1.08-2.26-1.75-3.68-1.86l-7.58-.56c-.89-.07-1.74-.36-2.47-.83-.09.49-.15,1.01-.15,1.51v3.1c0,.72-.09,1.43-.27,2.13l-3.01,11.4c-.54,2.06-1.86,3.83-3.68,4.95-2.01,1.24-3.4,3.27-3.82,5.59l-.94,5.2c-.15.85-.44,1.68-.85,2.44l-5.99,11.19c-.2.37-.37.74-.5,1.13l-1.35,3.8c-.44,1.24-1.18,2.37-2.14,3.27l2.08.9c1.47.64,2.26,2.26,1.88,3.82l-3.29,13.2c-.11.45-.31.87-.6,1.24l-4.29,5.46c-.23.29-.4.61-.52.95l-3.29,9.53c-.44,1.27-1.07,2.46-1.88,3.54l-3.5,4.67c-1.43,1.91-2.31,4.17-2.54,6.55l-.14,1.39c-.29,3-1.61,5.81-3.74,7.94-1.17,1.17-2.1,2.55-2.75,4.06l-4.82,11.24c-.73,1.71-1.28,3.5-1.62,5.33l-.14.75c-.48,2.56-1.35,5.03-2.58,7.33l-3.19,5.96c-1.23,2.3-2.1,4.77-2.58,7.33-.43,2.32-1.19,4.57-2.25,6.7l-7.23,14.48c-.25.49-.6.91-1.06,1.23l-.87.61,20.61,11.35c.27.15.56.28.86.39l31.53,11.48c.49.18,1,.3,1.52.34l19.5,1.81c3.52.32,7.07.31,10.59-.06l4.94-.51c11.88-1.24,23.02-6.39,31.66-14.65l12.58-12.02c.17-.16.34-.34.49-.53l28.22-34.14c.07-.09.14-.17.2-.26h0c15.68-21.19,27.66-44.9,35.4-70.11l.19-.61,1.16-3.36c-.61-.8-.83-1.89-.43-2.94h-.02Z"/>
  <path class="st7" d="M926.51,573.85c0-1.97-.5-3.92-1.46-5.65-1.08-1.95-1.58-4.16-1.44-6.38l.41-6.55c-1.56.2-3.19.02-4.7-.6-1.04-.42-2.22-.02-2.79.94l-1.22,2.02c-.35.58-.93.97-1.59,1.07l-5.48.87c-1.23.2-2.38-.64-2.59-1.86l-1.81-10.5c-.07-.41-.19-.81-.36-1.19l-1.83-4.18c-.71-1.62-2.19-2.76-3.95-3.03h0c-1.94-.3-3.89.53-5.01,2.14l-.34.48c-.67.96-1.65,1.66-2.77,1.99l-4.88,1.44c-.75.22-1.33.81-1.55,1.56-.32,1.14-1.47,1.84-2.63,1.61l-3.8-.76c-.66-.14-1.23-.55-1.55-1.14l-2.83-5.2c-1.44-2.63-2.29-5.53-2.52-8.51l-.7-9.26c-.2-2.76-2.13-5.09-4.8-5.81l-2.59-.71c-1.94-.53-3.52-1.91-4.3-3.77l-2.15-5.1c-.19-.45-.53-.83-.95-1.08l-3.8-2.22c-.66-.38-1.08-1.08-1.12-1.84l-.29-5.48c-.06-1.16-.98-2.08-2.13-2.15l-12.87-.76c-.49-.03-.98-.1-1.45-.22l-3.06-.77c-2.26-.57-4.67-.1-6.56,1.27-1.35.98-2.98,1.51-4.64,1.51h-12.01c-1,0-1.98-.22-2.88-.66l-7.31-3.5c-1.24-.6-2.26-1.55-2.93-2.75l-1.19-2.12c-1.18-2.1-3.4-3.4-5.82-3.4-1.35,0-2.67-.41-3.78-1.17l-15.84-10.91c-1.95-1.34-3.04-3.61-2.87-5.97l.48-6.63c.11-1.52.98-2.89,2.3-3.64l3.62-2.04c1.03-.58,1.79-1.53,2.13-2.65h0c.52-1.73,2.01-2.99,3.79-3.21l2.71-.34c1.13-.14,2.23-.46,3.26-.94l7.98-3.74c3.14-1.47,5.08-4.68,4.92-8.14l-.15-3.52c-.04-.88.06-1.77.3-2.63.66-2.39.24-4.95-1.14-7.02l-.31-.48c-.78-1.18-1.27-2.53-1.4-3.95l-.68-7.14c-.03-.24,0-.48.04-.71l1.14-5.12c.41-1.84.41-3.76-.02-5.6l-1.11-4.89c-.35-1.54-1.34-2.86-2.74-3.62h0c-1.77-.97-2.87-2.82-2.87-4.84v-5.01c0-.3-.06-.59-.17-.87l-2.55-6.2c-.31-.74-.2-1.59.28-2.23,1.27-1.69,1.81-3.82,1.51-5.92l-.37-2.61c-.35-2.42-1.58-4.64-3.46-6.2h0c-1.68-1.4-2.85-3.32-3.33-5.46l-.96-4.34c-.09-.42-.31-.81-.61-1.11l-3.85-3.84c-1.34-1.34-2-3.22-1.79-5.11.34-3.04-1.58-5.89-4.54-6.71l-1.91-.54c-.82-.23-1.67-.28-2.5-.17l-.74.1c-2.91.39-5.72-1.17-6.95-3.83h0c-.45-.99-.66-2.07-.6-3.16l.32-6.14c-.56-.03-1.12-.13-1.67-.31l-2.83-.94c-1.47-.49-3.08-.41-4.5.22l-12.31,5.52c-2.08.94-4.41,1.14-6.63.59l-1.82-.45c-1.36-.34-2.81-.25-4.11.28l-1.86.75c-1.45.58-2.64,1.64-3.39,3.01-.43.77-1.22,1.27-2.1,1.32l-6.8.32c-1.54.08-2.66-1.18-2.64-2.56l-.37.25c-.26.18-.51.37-.73.6l-1.91,1.9c-.65.65-1.42,1.13-2.28,1.44l-2.82,1c-1.49.54-2.72,1.62-3.43,3.04-.77,1.52-2.13,2.66-3.76,3.15l-4.97,1.46c-.19.05-.37.1-.57.13l-7.41,1.23c-.39.07-.77.18-1.12.33l-4.31,1.87c-3.63,1.58-6.4,4.66-7.57,8.45l-1.03,3.31c-.82,2.64-.82,5.49.02,8.13l.77,2.45c.47,1.48.79,3,.96,4.54l.92,8.27c.14,1.22.42,2.41.84,3.55l2.91,7.86c.69,1.86,1,3.85.92,5.83l-.26,6.34c-.04,1.11-.21,2.22-.51,3.29l-4.16,15.39h-.02c.11.09.21.17.31.26l3.05,2.71c.52.46.9,1.05,1.12,1.7l1.8,5.4c.39,1.18,1.32,2.11,2.5,2.5l1.5.5c1.33.44,2.32,1.56,2.61,2.92l1.69,7.9c.36,1.65-.38,3.35-1.83,4.22h0c-1.33.79-2.07,2.29-1.9,3.83l.92,8.24c.37,3.29,3.15,5.78,6.46,5.78,1.01,0,2.01.24,2.91.69l5.46,2.73c2.66,1.33,4.59,3.78,5.26,6.68l1.34,5.77c.48,2.06-.42,4.18-2.23,5.27h0c-2.18,1.31-2.99,4.07-1.85,6.34l.33.66c.27.55.42,1.16.42,1.77v4.82c0,2.2-.88,4.31-2.43,5.87h0c-1.67,1.67-2.55,3.97-2.42,6.33l.53,9.51c.12,2.14,1.03,4.18,2.54,5.69h0c1.45,1.45,2.34,3.35,2.53,5.38l.6,6.57c.31,3.5-.74,6.97-2.96,9.7-1.65,2.02-3.85,3.53-6.34,4.33l-2.9.93c-2.43.78-3.5,3.63-2.18,5.82l2.61,4.3c1.72,2.83,3.95,5.32,6.57,7.32,2.53,1.94,4.7,4.32,6.4,7.03l4.07,6.5c1.7,2.72,3.88,5.11,6.44,7.06l1.16.88c3.04,2.32,5.48,5.36,7.07,8.84l1.04,2.27c1.05,2.29,2.47,4.4,4.19,6.23l3.87,4.12c.2.22.41.45.6.68.35-.32.64-.7.83-1.14l.62-1.43c1.03-2.35,2.82-4.29,5.07-5.5l4.96-2.67c2.27-1.22,4.88-1.64,7.43-1.2,2.53.44,5.12.03,7.38-1.17l.88-.47c1.66-.88,3.51-1.35,5.39-1.35h13.13c.98,0,1.95.17,2.86.51l8.91,3.3c1.39.51,2.88.65,4.34.38h0c1.84-.33,3.73-.03,5.38.85l1.45.77c1.3.7,2.77,1.04,4.25.98l16.54-.71c1.83-.08,3.59-.69,5.06-1.77,1.8-1.31,4.01-1.93,6.23-1.74l6.36.53c.82.07,1.64.03,2.45-.12l14.1-2.59c1.37-.26,2.56-1.08,3.27-2.27,1-1.65,2.87-2.56,4.78-2.31l13.69,1.79c2.85.37,5.74.29,8.56-.25l1.43-.27c2.63-.5,5.32-.61,7.98-.32l10.08,1.09c1.79.2,3.55-.63,4.55-2.13l.32-.49c.53-.79,1.27-1.4,2.13-1.77l11.79-5c1.35-.57,2.81-.87,4.27-.87h1.71c1.43,0,2.83.28,4.13.82v-12.65h.06Z"/>
  <path class="st4" d="M1121.28,581.97l-1.23-1.86c-.65-.96-.95-2.11-.89-3.28l.28-5.12c.05-.92.03-1.85-.07-2.77l-.45-4.25c-.21-2.06-.8-4.06-1.73-5.91-1.2-2.39-1.82-5.04-1.82-7.72v-3.42c0-1.93-.94-3.75-2.53-4.86-1.33-.93-2.21-2.36-2.46-3.95l-.2-1.26c-.22-1.43-.95-2.73-2.06-3.66l-4.42-3.69c-1.35-1.12-2.12-2.79-2.12-4.56v-9.37c0-.19,0-.37-.03-.56l-.55-5.26c-.21-1.99-1.42-3.74-3.21-4.64-2.15-1.07-3.43-3.36-3.22-5.76l.85-9.94c.12-1.41-.31-2.81-1.22-3.89-2.04-2.45-3.01-5.61-2.69-8.79l.39-3.88c.31-3.18,1.9-6.1,4.39-8.09l1.53-1.23c.96-.77,1.71-1.77,2.18-2.91l1.96-4.75c.37-.88.54-1.82.54-2.78v-4.75c0-1.65-.56-3.26-1.59-4.55-1.33-1.65-1.86-3.81-1.47-5.89l.28-1.49c.31-1.64-.16-3.31-1.26-4.56l-.65-.73c-.83-.93-1.3-2.12-1.35-3.37l-.11-3.13c-.02-.51-.12-1.01-.27-1.48-.59,2.18-2.57,3.77-4.91,3.77-1.55,0-3.01.71-3.98,1.92l-.09.1c-1.33,1.68-3.19,2.86-5.26,3.38l-6.38,1.6c-.95.24-1.94.33-2.91.28l-2.73-.15c-2.6-.15-5.15.76-7.09,2.5-1.04.94-1.86,2.08-2.41,3.36l-4.26,9.75c-.8,1.83-2.65,2.96-4.64,2.84l-8.27-.54c-1.65-.11-3.24.65-4.18,2.01-1.04,1.48-2.81,2.24-4.6,1.97l-3.72-.57c-3.36-.52-6.77.54-9.25,2.86h0c-1.88,1.75-2.87,4.25-2.72,6.82h0c.15,2.41-.71,4.77-2.36,6.53l-1.27,1.35c-1.91,2.04-4.69,3.06-7.47,2.72l-9.15-1.12c-3.39-.42-6.82.44-9.62,2.4l-2.68,1.88c-1.33.94-2.05,2.53-1.85,4.15l.28,2.36c.2,1.73-.62,3.42-2.12,4.32-1.33.8-2.14,2.24-2.14,3.8v1.73c0,2.34-2.12,4.11-4.42,3.68-1.71-.32-3.42.59-4.11,2.19l-3.14,7.23c-.18.41-.37.82-.58,1.22l-2.46,4.69c-1.5,2.87-3.72,5.29-6.44,7.04l-4.32,2.77c-1.85,1.19-2.91,3.3-2.74,5.51.12,1.54-.37,3.07-1.35,4.28l-2.82,3.43c-1.36,1.66-3.13,2.93-5.14,3.7l-3.19,1.22c-2.22.85-4.15,2.33-5.56,4.24l-1.93,2.64c-.64.88-1.39,1.66-2.24,2.34l-1.33,1.07c-1.37,1.1-3,1.77-4.68,1.99l-.41,6.56c-.14,2.22.37,4.44,1.44,6.39.96,1.73,1.46,3.68,1.46,5.66v12.68c.73.3,1.43.67,2.08,1.13,2.05,1.42,4.52,2.09,7,1.92l.8-.06c1.19-.09,2.39.03,3.54.32l7.44,1.94c.88.23,1.63.82,2.06,1.62,1.16,2.16,4.19,2.33,5.59.31l.61-.88c.31-.45.74-.83,1.23-1.07l10.69-5.36c.33-.17.69-.27,1.06-.32l7.99-1c1.61-.2,3.1-.94,4.25-2.08h0c1.51-1.51,3.59-2.28,5.7-2.11l6.54.5c1.35.1,2.65.59,3.75,1.39l3.69,2.71c1,.73,2.18,1.2,3.4,1.35l3.73.47c1.15.14,2.24.55,3.19,1.21l7.23,4.92c1.83,1.25,3.27,3,4.14,5.03.93,2.16,2.48,4,4.47,5.25l5.14,3.25c.37.23.71.49,1.05.75l9.31,7.46c1.1.89,2.04,1.97,2.75,3.19l2.86,4.87c.42.72,1.1,1.24,1.89,1.48l.2.06c2.07.62,3.9,1.82,5.31,3.46h0c2.13,2.5,5.25,3.94,8.54,3.94h8.34c.79,0,1.58-.08,2.36-.25l2.55-.54c1.79-.38,3.63-.32,5.39.17l8.11,2.27c.46.13.88.36,1.25.67l2.29,1.97c.25.21.53.39.83.52l5.49,2.39c.96-.9,1.7-2.02,2.14-3.27l1.35-3.8c.14-.39.31-.77.5-1.13l5.99-11.19c.41-.77.7-1.58.85-2.44l.94-5.2c.43-2.33,1.81-4.35,3.82-5.59,1.81-1.12,3.13-2.89,3.67-4.95l3.01-11.4c.19-.69.27-1.41.27-2.13v-3.1c0-.51.05-1.01.14-1.51-.62-.4-1.17-.92-1.59-1.55h0Z"/>
  <path class="st8" d="M646.91,751.53l2.52-3.28c1.61-2.09,4.27-3.06,6.85-2.49h0c4.52,1.01,9.24.29,13.26-2.01l4.07-2.33c1.77-1.01,2.99-2.77,3.33-4.78h0c.43-2.63,2.37-4.75,4.94-5.44h0c3.31-.89,6.19-2.95,8.08-5.8l1.81-2.73c1.76-2.65,2.58-5.82,2.31-8.99l-.26-3.04c-.37-4.47,1.24-8.88,4.41-12.06l3.13-3.14c.41-.41.86-.76,1.35-1.05l4.45-2.63c3.32-1.95,5.24-5.62,4.96-9.46-.12-1.63-.62-3.21-1.47-4.59l-1.46-2.38c-1.43-2.33-1.86-5.12-1.2-7.77l2.08-8.36c1.21-4.44.82-9.17-1.1-13.34l-.02-.05c-.07-.15-.14-.32-.2-.48l-.02.02c-.28.23-.57.44-.88.64l-6.33,3.92c-1.82,1.13-4.04,1.43-6.1.82l-5.62-1.67c-2.25-.66-4.67-.25-6.57,1.13-1.34.97-2.94,1.47-4.59,1.44l-15.78-.34c-1.83-.04-3.61.57-5.02,1.73-1.81,1.48-4.2,2.06-6.49,1.56l-7.91-1.73c-2.11-.46-4.28-.62-6.43-.47l-6.47.45c-2.38.16-4.71.8-6.84,1.87h0c-4.4,2.2-9.5,2.51-14.13.87l-6.13-2.18c-.58-.2-1.17-.38-1.77-.53l-13.99-3.41c-1.32-.32-2.38-1.3-2.82-2.6l-2.55-7.67c-.84-2.54-.36-5.34,1.28-7.46l.77-.98c1.86-2.4,2.21-5.66.89-8.39h0c-2.4-5-7.05-8.54-12.51-9.51l-.66-.12c-2.31-.42-4.48-1.44-6.27-2.97h0c-2.39-2.05-5.44-3.19-8.59-3.19s-6.18-.87-8.83-2.51l-3.32-2.05c-1.51-.94-2.82-2.15-3.9-3.57-1.65-2.21-3.91-3.88-6.48-4.83l-4.59-1.69c-3.46-1.27-6.66-3.19-9.44-5.63l-6.57-5.82c-.8-.71-1.66-1.35-2.57-1.92l-9.33-5.84c-.22-.15-.43-.31-.63-.49l-8.01-7.62c-.3-.28-.54-.6-.73-.95l-.17.09-13.73-12.99c-1.86-1.76-4.03-3.18-6.4-4.17l-1.14-.48c-2.65-1.12-5.05-2.76-7.06-4.83l-9.99-10.29c-1.72-1.77-3.8-3.15-6.1-4.06l-.36-.14c-2.9-1.12-5.44-3.02-7.34-5.48l-9.96-12.82-7.08-8.44c-.2-.23-.41-.44-.65-.64-.55.39-.91.99-1.01,1.65-.12.77-.59,1.44-1.26,1.82l-4.16,2.33c-.51.29-.91.75-1.12,1.29l-2.88,7.5c-.22.59-.34,1.21-.34,1.84v2.19c0,.92-.49,1.76-1.28,2.23l-.97.57c-.5.3-1.09.41-1.66.33-1.58-.21-2.98,1.04-2.94,2.63l.08,2.96c0,.45-.25.87-.66,1.05l-.04.02c-.85.38-.9,1.57-.08,2.01.38.2.61.61.59,1.06l-.47,7.72c0,.18-.06.35-.15.51l-1.52,2.8c-.27.5-.16,1.13.28,1.51l1.13.96c1.08.92,1.81,2.18,2.08,3.57l.09.5c.25,1.28.09,2.61-.46,3.79l-.74,1.61c-.3.64-1.07.89-1.69.55l-.24-.14c-.81-.45-1.8.14-1.8,1.07h0c0,.64-.49,1.17-1.12,1.22l-11.78.89c-.74.06-1.47.17-2.19.35l-10.83,2.67c-1.17.29-2.37.42-3.56.38l-8.11-.21c-2.23-.06-4.44.44-6.43,1.43l-12.46,6.24,18.55,11.76c4.45,2.82,8.64,6.02,12.54,9.57l36.01,32.78c2.62,2.39,5.36,4.63,8.21,6.72l50.46,37.09c.77.57,1.53,1.17,2.28,1.78l29.88,24.86c2.72,2.27,5.22,4.79,7.44,7.54h0c7.84,9.65,18.74,16.33,30.89,18.91l2.17.46c6.48,1.37,13.24.67,19.31-2,3.66-1.61,7.59-2.51,11.58-2.67l2.36-.08c5-.19,9.93,1.1,14.2,3.7l6.26,3.81c2.54,1.54,5.33,2.63,8.24,3.22l4.91.98c7.3,1.47,13.61,6.04,17.26,12.54l4.36,7.77c3,5.35,7.49,9.66,12.86,12.47l.68-4.8c.16-1.16.63-2.25,1.34-3.18v-.02Z"/>
  <path class="st5" d="M1102.34,639.98l-7.56-3.29c-.3-.13-.58-.31-.82-.52l-2.29-1.97c-.37-.31-.79-.54-1.25-.67l-8.11-2.27c-1.76-.49-3.6-.55-5.39-.17l-2.55.54c-.77.17-1.56.25-2.35.25h-8.34c-3.28,0-6.4-1.44-8.54-3.93h0c-1.4-1.63-3.25-2.83-5.3-3.45l-.2-.06c-.79-.24-1.46-.77-1.89-1.48l-2.86-4.87c-.71-1.22-1.65-2.3-2.75-3.18l-9.31-7.45c-.34-.27-.69-.52-1.05-.75l-5.13-3.24c-1.99-1.26-3.54-3.09-4.47-5.24-.87-2.04-2.31-3.79-4.14-5.03l-7.23-4.92c-.95-.65-2.05-1.06-3.19-1.21l-3.73-.47c-1.23-.15-2.41-.62-3.4-1.35l-3.69-2.71c-1.1-.8-2.4-1.28-3.75-1.39l-6.53-.5c-2.12-.16-4.21.61-5.7,2.11h0c-1.15,1.15-2.63,1.88-4.25,2.08l-7.99.99c-.37.04-.73.15-1.06.32l-10.69,5.35c-.49.25-.92.61-1.23,1.07l-.61.88c-1.39,2.02-4.43,1.85-5.58-.31-.43-.8-1.18-1.39-2.06-1.62l-7.44-1.94c-1.16-.3-2.35-.41-3.54-.32l-.8.06c-2.48.18-4.95-.5-7-1.91-.6-.42-1.24-.76-1.9-1.05-.05.37-.06.74,0,1.11l1.61,11.31c.05.34.05.69,0,1.04l-1.26,10.06c-.29,2.33,1.53,4.4,3.87,4.4.77,0,1.52.23,2.17.66l1.84,1.23c1.6,1.07,2.18,3.15,1.38,4.89l-1.35,2.93c-.64,1.39-1.73,2.51-3.09,3.19-1.07.54-1.98,1.35-2.63,2.36l-4.27,6.62c-1.01,1.57-1.33,3.47-.88,5.28.96,3.84-1.59,7.67-5.49,8.27h0c-.54.08-1.08.24-1.58.45l-4.72,1.99c-3.86,1.63-6.36,5.4-6.36,9.59h0c0,2.01-.58,3.96-1.67,5.65l-3.78,5.85c-.88,1.35-2.37,2.17-3.98,2.17-3.19,0-5.91,2.31-6.43,5.45l-.11.65c-.15.91-.49,1.78-1,2.54l-3.87,5.82c-.97,1.46-2.67,2.26-4.42,2.09-2.03-.2-3.96.91-4.79,2.77l-3.11,6.92c-.71,1.59-.93,3.36-.6,5.07l1.1,5.85c.19,1,.54,1.95,1.07,2.82l1.9,3.18c.69,1.15,1.1,2.44,1.19,3.78h0c.28,3.93,3.21,7.16,7.1,7.8l3.42.57c.78.13,1.53.37,2.24.71l9.46,4.48c.84.4,1.52,1.09,1.89,1.95l.2.43c3.3-5.77,8.21-10.49,14.15-13.54h0c6.78-3.49,13.66-4.39,21.15-3l27.41,4.66c.34.06.67.15.99.27l54.17,19.87c3.56,1.3,7.01,2.88,10.33,4.7l21.54,11.86.87-.6c.45-.31.81-.73,1.05-1.22l7.22-14.46c1.05-2.11,1.81-4.36,2.24-6.69.48-2.56,1.35-5.03,2.57-7.32l3.19-5.96c1.22-2.3,2.1-4.76,2.58-7.32l.14-.75c.34-1.83.88-3.62,1.61-5.33l4.81-11.23c.65-1.51,1.58-2.89,2.74-4.06,2.12-2.13,3.45-4.94,3.73-7.93l.14-1.39c.23-2.37,1.1-4.64,2.53-6.54l3.49-4.66c.81-1.07,1.44-2.26,1.88-3.54l3.29-9.52c.12-.35.3-.66.52-.95l4.28-5.45c.29-.37.49-.78.6-1.23l3.29-13.18c.39-1.56-.41-3.16-1.88-3.81h-.05Z"/>
  <path class="st7" d="M869.34,705.33c-4.32-1.97-7.22-6.17-7.54-10.91-.08-1.1-.31-2.18-.72-3.2l-.79-1.98c-1.44-3.59-4.73-6.1-8.58-6.52l-2.33-.25c-1.74-.2-3.51.05-5.13.71l-10.14,4.14c-.73.3-1.4.76-1.93,1.34l-.93,1.01c-2.51,2.73-6.96,2.18-8.72-1.09-.5-.94-1.28-1.7-2.21-2.2l-4.82-2.57c-2.05-1.09-3.85-2.59-5.28-4.42l-2.66-3.39c-1.28-1.62-3.23-2.58-5.3-2.58h-1.43c-2.49,0-4.77-1.36-5.94-3.55-1.45-2.69-4.53-4.08-7.5-3.36l-3.57.85c-2.96.71-6.04.71-9,0l-8.32-1.98c-.2-.04-.38-.11-.57-.2l-4.43-2.05c-1.75-.81-3.8.2-4.21,2.08h0c-.26,1.18-1.22,2.1-2.41,2.31l-2.38.43c-1.45.26-2.88-.55-3.38-1.94h0c-.96-2.65-3.56-4.35-6.38-4.2l-3.84.21c-1.71.09-3.41-.39-4.82-1.37h0c-2.48-1.74-5.74-1.85-8.33-.29l-5,3c-.07.04-.14.09-.2.14l-8.03,5.73c-.4.29-.72.66-.95,1.11l-1.75,3.49c-.2.41-.5.76-.85,1.03.06.1.12.2.18.31l1.46,2.37c.85,1.39,1.36,2.96,1.47,4.58.27,3.84-1.65,7.5-4.96,9.44l-4.45,2.62c-.49.29-.95.65-1.35,1.05l-3.13,3.13c-3.17,3.16-4.78,7.57-4.41,12.04l.26,3.04c.26,3.16-.55,6.33-2.31,8.97l-1.81,2.72c-1.9,2.85-4.77,4.91-8.09,5.79h0c-2.57.69-4.5,2.82-4.94,5.44h0c-.33,2.01-1.56,3.76-3.33,4.77l-4.07,2.32c-4.02,2.3-8.74,3.01-13.26,2.01-2.57-.57-5.24.4-6.85,2.48l-2.52,3.28c-.71.93-1.17,2.02-1.34,3.17l-.68,4.79c1.47.77,3,1.42,4.59,1.96h0c3,1,5.78,2.59,8.16,4.7l10.77,9.49c3.8,3.36,6.42,7.85,7.45,12.82l1.81,8.72c1.84,8.86,8.63,15.87,17.43,17.99l.16.03c1.9.46,3.69,1.12,5.38,2,7.62,3.94,29.91,15.45,32.82,16.96.21.11.43.2.65.29l10.08,3.82c10.72,4.06,22.24,5.59,33.65,4.48l.37-.03c8.44-.83,16.61-3.02,24.25-6.49,5.36-2.43,11.48-5.22,15.76-7.16,3.6-1.63,7.03-3.59,10.27-5.85l8.65-6.03c7.93-5.53,14.5-12.81,19.18-21.27l.15-.27c3.45-6.24,8.34-11.46,14.28-15.28,1.87-1.2,3.86-2.48,5.76-3.7,6.66-4.28,11.98-10.32,15.4-17.46l8.81-18.43c.37-.77.77-1.53,1.19-2.27l-.2-.43c-.38-.86-1.06-1.55-1.9-1.95l-9.47-4.48c-.71-.34-1.47-.58-2.25-.71l-3.43-.57c-3.89-.65-6.83-3.87-7.11-7.8h0c-.09-1.34-.5-2.63-1.19-3.78l-1.91-3.18c-.52-.87-.89-1.82-1.07-2.82l-1.1-5.84s-.02-.09-.02-.14c-.27-.04-.54-.12-.8-.24l-2.01-.92-.05-.02h0Z"/>
  <path class="st5" d="M935.06,616.01l-1.85-1.24c-.65-.43-1.4-.66-2.17-.66-2.36,0-4.17-2.06-3.88-4.41l1.26-10.07c.04-.35.04-.7,0-1.04l-1.62-11.32c-.05-.38-.05-.75,0-1.12-1.36-.59-2.84-.9-4.34-.9h-1.71c-1.47,0-2.92.3-4.28.87l-11.8,5.01c-.87.37-1.62.99-2.14,1.77l-.32.49c-1.01,1.51-2.76,2.32-4.56,2.13l-10.09-1.09c-2.67-.29-5.36-.18-7.99.32l-1.43.27c-2.83.54-5.72.62-8.58.25l-13.71-1.79c-1.92-.25-3.79.66-4.79,2.32-.72,1.19-1.91,2.02-3.28,2.27l-14.12,2.6c-.81.15-1.64.19-2.45.12l-6.37-.53c-2.22-.19-4.44.43-6.24,1.75-1.48,1.07-3.24,1.7-5.07,1.77l-16.56.71c-1.48.06-2.96-.27-4.26-.98l-1.45-.77c-1.64-.89-3.54-1.18-5.38-.85h0c-1.46.26-2.96.14-4.34-.38l-8.93-3.31c-.92-.34-1.89-.51-2.86-.51h-13.15c-1.88,0-3.74.46-5.4,1.35l-.88.47c-2.27,1.21-4.87,1.62-7.39,1.18-2.55-.45-5.16-.03-7.43,1.2l-4.97,2.68c-2.26,1.22-4.04,3.16-5.08,5.51l-.62,1.43c-.2.44-.48.84-.83,1.14.08.09.15.16.22.25l6.25,7.43c.47.55.77,1.22.89,1.93l.74,4.71c.27,1.75-.64,3.46-2.24,4.21l-9.71,4.51c-.32.15-.61.33-.88.56l-10.67,8.97c.06.16.13.32.2.48l.03.05c1.92,4.18,2.32,8.9,1.1,13.34l-2.09,8.36c-.63,2.53-.26,5.2,1.02,7.46.35-.27.65-.62.85-1.03l1.75-3.49c.22-.44.54-.82.95-1.11l8.04-5.74c.07-.04.14-.09.2-.14l5-3c2.59-1.56,5.86-1.44,8.34.29h0c1.41.99,3.1,1.47,4.82,1.37l3.84-.21c2.82-.15,5.41,1.55,6.38,4.21h0c.5,1.39,1.93,2.21,3.38,1.94l2.39-.44c1.2-.22,2.15-1.13,2.41-2.32h0c.42-1.88,2.47-2.9,4.22-2.09l4.44,2.05c.18.08.37.15.57.2l8.32,1.99c2.96.71,6.05.71,9,0l3.57-.85c2.97-.71,6.06.67,7.5,3.37,1.18,2.19,3.46,3.55,5.94,3.55h1.43c2.07,0,4.03.95,5.31,2.58l2.67,3.39c1.44,1.82,3.24,3.34,5.28,4.43l4.82,2.57c.94.5,1.7,1.27,2.22,2.21,1.76,3.27,6.22,3.83,8.73,1.09l.93-1.01c.54-.59,1.2-1.05,1.93-1.35l10.14-4.15c1.63-.66,3.39-.91,5.14-.72l2.33.26c3.85.43,7.15,2.94,8.58,6.53l.79,1.99c.41,1.02.66,2.1.72,3.2.31,4.75,3.21,8.95,7.55,10.92l2.01.92c.26.12.53.2.8.24-.28-1.67-.07-3.39.63-4.94l3.12-6.93c.83-1.86,2.78-2.98,4.8-2.78,1.75.18,3.45-.63,4.43-2.09l3.88-5.83c.51-.77.86-1.64,1.01-2.55l.11-.66c.53-3.15,3.25-5.46,6.45-5.46,1.61,0,3.12-.82,3.99-2.17l3.79-5.86c1.09-1.69,1.67-3.65,1.67-5.66h0c0-4.19,2.51-7.97,6.37-9.6l4.73-1.99c.51-.21,1.04-.37,1.58-.45h0c3.92-.6,6.46-4.44,5.5-8.28-.45-1.81-.14-3.72.88-5.29l4.28-6.63c.66-1.01,1.56-1.82,2.63-2.36,1.36-.68,2.45-1.81,3.09-3.2l1.35-2.94c.81-1.75.22-3.83-1.38-4.9h0Z"/>
  <path class="st8" d="M1500.22,703.64l-3.3-2.8c-.28-.24-.45-.58-.48-.94l-.47-6.05c-.02-.2.02-.4.09-.6l1.67-4.39c.11-.3.12-.63.02-.94l-1.33-3.86c-.07-.19-.09-.39-.07-.59l.29-2.94c.25-2.44-.68-4.84-2.49-6.47h0c-1.66-1.5-2.58-3.65-2.53-5.89l.27-11.21v-6.4c0-1.52.17-3.05.51-4.53l.55-2.43c.59-2.55.79-5.18.6-7.8h0c-.16-2.32-.73-4.6-1.68-6.73l-4.07-9.21-2.92-5.84c-.65-1.29-.91-2.73-.76-4.16l.62-6c.14-1.37-.09-2.76-.68-4.01l-1.56-3.3c-.37-.78-.6-1.62-.69-2.48l-.17-1.66c-.15-1.54-.77-3-1.78-4.17-1.1-1.28-1.73-2.89-1.81-4.57,0-.16,0-.29,0-.38,0-.45-2.39-4.3-3.15-5.5-.15-.24-.31-.46-.48-.68l-1.77-2.23c-1.31-1.65-1.87-3.79-1.55-5.87l.13-.83c.16-1.04.1-2.1-.16-3.12l-.63-2.36c-.25-.94-.31-1.92-.2-2.89l.37-2.89c.1-.85.53-1.63,1.19-2.17l3.85-3.19c.83-.69,1.28-1.73,1.21-2.8l-3.52,1.37c-2.47.97-4.99,1.81-7.54,2.55l-21.13,6.04-21.39,11.9-8.32,9.52-13.21,8.33c-1.89,1.19-3.66,2.55-5.28,4.08l-5.18,4.84c-6.17,5.76-14.22,9.12-22.65,9.42h-.15c-1.92.08-3.8,0-5.67-.23-2.81-.34-7.33-.89-11.5-1.4-6.57-.8-13.25.25-19.26,3.04l-10.96,5.08c-2.8,1.3-5.44,2.9-7.89,4.78l-.72.55c-7.31,5.62-13.87,12.16-19.51,19.46l-.23.3c-6.47,8.36-11.69,17.54-15.55,27.32-2.24,5.68-4.28,10.84-4.28,10.84l-10.81,27.06c-1.88,4.71-4.09,9.28-6.6,13.68,1.25.46,2.43,1.13,3.46,2.01l.09.08c3.2,2.71,6.86,4.81,10.82,6.19h0c4.29,1.5,8.23,3.84,11.61,6.88l1.12,1.01-2.3,15.5c-.14.9-.37,1.79-.71,2.63l-5.87,14.41c-.31.78-.54,1.59-.69,2.43l-2.29,13.73,10.1,4.76c.33.15.67.3,1.02.42l1.52.54c4.41,1.58,8.5,3.98,12.04,7.05l3.32,2.89c3.74,3.26,8.09,5.75,12.8,7.31l3.72,1.24c2.74.91,5.37,2.15,7.82,3.66l11.04,6.8c.98.6,1.98,1.17,3.01,1.68l9.42,4.72c1.83.92,3.59,1.98,5.25,3.17l7.93,5.67c.87.62,1.81,1.11,2.81,1.46-.08-.55-.23-1.11-.47-1.63h0c-.33-.72-.51-1.52-.53-2.32l-.12-6.96c-.02-1.52.24-3.04.77-4.46l1.72-4.6c.75-1.99,2.44-3.47,4.51-3.95h0c1.83-.42,3.38-1.63,4.23-3.31l4.25-8.39c.4-.79.55-1.69.43-2.57h0c-.21-1.58.44-3.14,1.71-4.09l1.14-.86c.23-.17.44-.37.64-.59l9.41-10.54c.48-.54.71-1.27.6-1.98l-.2-1.5c-.11-.8.18-1.6.77-2.15h0c.89-.83,1.05-2.18.37-3.18l-.15-.24c-.67-1.01-.52-2.35.37-3.18l.57-.54c.58-.54.86-1.34.76-2.13l-.33-2.48c-.37-2.77.1-5.59,1.35-8.09l5.03-10.07c.8-1.61,1.95-3.01,3.38-4.1h0c1.61-1.23,2.87-2.87,3.67-4.73l.22-.51c.46-1.07,1.07-2.07,1.82-2.95l6.34-7.57c.58-.69,1.11-1.4,1.62-2.15l7.57-11.12c1.44-2.11,3.86-3.32,6.41-3.2l2.34.11c.55.03.97.51.92,1.06-.05.53.33,1,.85,1.06l3.2.38c1,.12,1.89-.66,1.89-1.68v-.04c0-.92.7-1.67,1.6-1.73l4.42-.31c.93-.07,1.85.14,2.67.59,1.44.79,3.17.8,4.61.02l1.78-.95c1.87-1.01,3.91-1.63,6.03-1.86l4.18-.43c.73-.08,1.4.44,1.5,1.17h0c.09.67.67,1.18,1.36,1.18h2.69c.55,0,1.05-.32,1.26-.83l.05-.11c.34-.8,1.33-1.08,2.04-.59l.28.2c.64.44,1.52.26,1.94-.4l1.1-1.75c.17-.27.43-.48.74-.57l2.79-.9c1.84-.6,3.75-.94,5.67-1l2.63-.1c2.38-.1,4.63,1.12,5.85,3.17h0c.09.15.21.29.36.4l3.32,2.47c.66.49,1.6.29,2.01-.43l.09-.15c.33-.58.2-1.3-.31-1.73v-.02Z"/>
  <path class="st8" d="M1419.45,906.47l-1.89-1.5c-.28-.22-.59-.42-.9-.6l-2.91-1.59c-.34-.19-.63-.46-.83-.79l-2.07-3.41c-.07-.11-.15-.21-.22-.31l-1.72-1.96c-.95-1.09-2.68-.98-3.48.22l-2.18,3.22c-.59.88-1.71,1.21-2.68.8l-8.44-3.55-3.78-1.03c-1.35-.36-2.56-1.13-3.47-2.19l-.88-1.03c-2.41-2.8-6.57-3.25-9.52-1.04l-2.11,1.58c-1.22.91-2.69,1.4-4.21,1.4h-2.25c-1.64,0-3.14-.93-3.88-2.4h0c-.26-.52-.63-.99-1.07-1.37l-2.02-1.72c-.54-.45-1.26-.61-1.92-.42h0c-1.68.48-3.49.21-4.96-.73l-2.18-1.4c-1.52-.98-2.53-2.59-2.76-4.38,1.56-2.59,1.1-5.91-1.1-7.98l-.42-.39c-1.5-1.42-2.23-3.48-1.96-5.53l.5-3.77c.08-.6.42-1.13.93-1.45l.29-.19c1.74-1.11,2.78-3.05,2.72-5.12h0c-.05-2,1.25-3.81,3.18-4.38l1.34-.4c2.13-.64,3.47-2.75,3.13-4.95h0c-.19-1.17-.83-2.23-1.79-2.92l-5.38-3.89c-.89-.65-.48-2.05.62-2.1l10.19-.49c.77-.03,1.48-.41,1.95-1.02h0c.94-1.24,1.34-2.79,1.13-4.28-1-.36-1.94-.84-2.81-1.46l-7.92-5.66c-1.67-1.19-3.42-2.24-5.25-3.16l-9.42-4.71c-1.03-.51-2.03-1.07-3.01-1.68l-11.03-6.79c-2.46-1.51-5.08-2.74-7.82-3.66l-3.71-1.24c-4.7-1.56-9.05-4.05-12.79-7.3l-3.31-2.88c-3.54-3.08-7.61-5.47-12.03-7.04l-1.52-.54c-.35-.13-.69-.26-1.02-.42l-10.1-4.75,2.29-13.71c.14-.83.36-1.64.69-2.42l5.86-14.39c.34-.84.59-1.72.71-2.63l2.29-15.47-1.12-1.01c-3.37-3.04-7.32-5.37-11.6-6.87h0c-3.95-1.39-7.61-3.48-10.81-6.18l-.09-.08c-1.04-.88-2.21-1.55-3.46-2.01-.56.98-1.12,1.95-1.71,2.91l-13.94,22.74c-2.52,4.11-4.74,8.39-6.66,12.81l-6.09,14.01c-1.93,4.45-4.34,8.67-7.19,12.59l-4.34,5.99c-5.67,7.82-13.03,14.27-21.53,18.84l-10.25,5.52-10.22,5.68c-7.36,4.09-15.51,6.54-23.91,7.17l-11.03.83c-5.13.38-10.27.09-15.32-.87l-31.67-6.05c-1.95-.37-3.86-.85-5.75-1.41l.98,10.77,1.4,11.71c.31,2.58.51,5.18.61,7.78l.26,7.17c.14,3.83.52,7.66,1.12,11.46l1.39,8.7c.13.8.17,1.6.13,2.41l-.23,4.38c-.2,3.89,1.59,7.63,4.77,9.89,2.34,1.67,5.21,2.4,8.06,2.04l1.33-.17c5.95-.74,11.97.61,17.02,3.82l2.45,1.56c2.28,1.45,4.78,2.53,7.39,3.21l12.11,3.13c2.16.56,4.24,1.4,6.19,2.49l13.45,7.57c2.36,1.33,4.92,2.28,7.57,2.8h0c7.61,1.52,14.8,4.73,21.01,9.39l1.1.82c1.28.97,2.64,1.84,4.03,2.64l14.21,8.05c1.59.9,3.11,1.92,4.56,3.04l1.46,1.14c4.98,3.88,8.91,8.93,11.42,14.72h0c1.59,3.66,3.75,7.04,6.39,10.01l2.8,3.15c2.11,2.37,3.91,5,5.36,7.82l8.82,17.18c.56,1.09,1.16,2.14,1.82,3.18l4.95,7.78c1.85,2.91,3.31,6.05,4.36,9.35,1.44,4.55,3.68,8.81,6.63,12.56l8.46,10.77c.53.67.98,1.39,1.34,2.17l7.62,16.09c1.33-1.75,1.99-3.95,1.79-6.2l-.33-3.89c-.07-.78.76-1.33,1.45-.96l3.4,1.8c.67.36,1.39.65,2.12.87l11.86,3.53c1.25.38,2.58.29,3.78-.24l1.44-.63c2.15-.94,3.05-3.52,1.95-5.59h0c-.73-1.38-.77-3.01-.13-4.42l1.21-2.63c1.07-2.33,1.16-4.99.26-7.39h0c-.13-.33-.18-.69-.15-1.05l.47-6.27c.11-1.47,1.48-2.52,2.92-2.24l4.6.88c.08.02.17.03.25.03l28.18,2.43c1.43.12,2.71-.87,2.96-2.29l.56-3.28c.05-.28.14-.55.27-.81l1.74-3.35c.24-.46.34-.97.31-1.49-.15-1.84,1.51-3.29,3.31-2.92,2.64.55,5.91.94,6.84-.2,1.62-2.01.18-13.12.18-13.12l.24-5.99c.08-2.01.6-3.97,1.52-5.76l2.7-5.2c.43-.81,1.23-1.34,2.15-1.4.86-.05,1.63-.53,2.07-1.26l.85-1.41c1.08-1.8,2.55-3.33,4.3-4.48l24.9-16.31c1-.65.94-2.14-.11-2.71h0c-.94-.51-1.11-1.8-.33-2.54l.92-.87c.31-.3.5-.71.5-1.15v-.14c0-2.67.95-5.25,2.69-7.29h0c1.7-1.98,2.65-4.49,2.7-7.09l.1-5.95c0-.31-.02-.63-.08-.94l-.82-4.18c-.2-1.07.2-2.17,1.05-2.85l1.16-.93c1.17-.94,1.79-2.42,1.61-3.92h0c-.16-1.38.38-2.74,1.45-3.63l.53-.45c.73-.62,1.23-1.47,1.4-2.42h0c.27-1.5-.31-3.03-1.5-3.98l-.02.03Z"/>
  <path class="st8" d="M1185.4,1104.12c-.07-.28-.17-.55-.3-.82l-3.34-6.67c-.14-.28-.25-.58-.31-.89l-.74-3.32c-.26-1.16.03-2.36.78-3.28h0c1.92-2.35.5-5.9-2.51-6.28l-1.29-.16c-1.11-.13-2.11-.76-2.73-1.69l-1.96-2.93c-2.14-3.21-3.22-7.03-3.05-10.89h0c.24-5.69-2.19-11.16-6.56-14.8l-1.73-1.44c-1.7-1.41-3.12-3.12-4.21-5.04l-5.36-9.48c-.71-1.27-1.8-2.3-3.11-2.95h0c-2.58-1.29-4.16-3.96-4.05-6.85l.26-6.59c.09-2.49-2.17-4.42-4.62-3.94l-9.9,1.98c-.59.12-1.19.16-1.79.13l-4.33-.26c-3.17-.19-6.07,1.78-7.07,4.79-.51,1.54-1.55,2.86-2.92,3.72l-10.39,6.54c-2.83,1.78-6.11,2.73-9.45,2.73h0c-3.18,0-6.31.86-9.04,2.48l-3.29,1.95c-6.13,3.63-13.15,5.46-20.26,5.29l-6.25-.15c-5.89-.13-11.67,1.59-16.52,4.94-.43.3-.93.51-1.44.61l-11.86,2.37c-1.74.35-3.49-.54-4.25-2.13l-3.41-7.19c-.57-1.2-.48-2.6.23-3.73l1.43-2.24c1.17-1.84,1.72-3.99,1.57-6.16h0c-.25-3.71-2.49-7-5.87-8.57l-.66-.31c-2.08-.97-3.79-2.63-4.82-4.69l-4.83-9.67c-.29-.58-.53-1.19-.7-1.81l-3.96-14.13c-.09-.35-.24-.68-.43-.99l-4.38-7.12c-.21-.35-.37-.74-.47-1.14l-1.62-6.91c-.43-1.79-2.06-3.04-3.91-2.98l-13.52.5c-.1,0-.2,0-.31.03l-7.45.88c-1.76.2-3.45-.82-4.07-2.47l-9.17-24.45c-.66-1.77-1.44-3.49-2.32-5.16l-12.16-22.96c-2.22-4.2-3.75-8.73-4.54-13.41h0c-1.28-7.71-3.75-15.18-7.31-22.15l-4.95-9.69c-3.09-6.05-5.36-12.48-6.74-19.13-.69-3.3-1.59-6.55-2.71-9.72l-4-11.38c-1.62-4.6-2.79-9.35-3.51-14.18l-1.84-12.48c-.14-.94-.62-1.8-1.34-2.41l-5.72-4.76c-.42-.35-.91-.6-1.43-.75l-.54-.15-11.04,12.78c-.09.1-.17.2-.26.29l-28.03,28.54c-2.23,2.27-4.69,4.31-7.33,6.1l-16.74,11.27c-4.43,2.98-9.14,5.48-14.09,7.47l-19.86,8.01c-4.39,1.77-8.94,3.13-13.59,4.06l-1.01.2c-4.01.8-8.06,1.27-12.12,1.43,0,.12.03.25.03.36l.19,3.39c.24,4.27,2.7,8.11,6.47,10.11l.42.22c2.64,1.4,4.67,3.71,5.72,6.5,1.34,3.55.94,7.53-1.08,10.75l-.52.83c-1.63,2.59-2.21,5.71-1.65,8.72l.4,2.15c.39,2.09.53,4.23.4,6.35l-.83,13.74c-.15,2.41-.63,4.79-1.43,7.07l-.15.44c-1.56,4.41-1.89,9.14-.98,13.72h0c.72,3.61.66,7.33-.16,10.92l-2,8.66c-.32,1.39-.4,2.84-.22,4.26l.92,7.38c.03.3.07.6.08.9l.57,11.44c.02.39.02.77,0,1.17l-.49,10.88c-.07,1.5.14,2.99.61,4.41l1.57,4.69c1.78,5.33,4.87,10.13,8.99,13.95l1.18,1.1c.85.79,1.64,1.63,2.38,2.53l3.68,4.48c4.12,5.03,5.98,11.54,5.14,17.99l-.45,3.45c-.07.53-.1,1.05-.1,1.58v6.06l-.57,16.55c-.03.71.02,1.4.11,2.1l3.59-1.99c1.17-.65,2.06-1.72,2.48-2.99.49-1.45,1.56-2.62,2.96-3.23l2.25-.97c.55-.24.96-.72,1.11-1.31.26-1.05,1.34-1.68,2.38-1.4l.79.21c1.05.28,2.13-.36,2.38-1.41h0c.54-2.22,2.69-3.66,4.94-3.3l.6.09c.71.11,1.44.04,2.13-.2l3.42-1.19c1.85-.65,3.02-2.49,2.81-4.44l-.02-.19c-.1-.94.11-1.88.61-2.68h0c.93-1.5.82-3.42-.25-4.81v-.02c-.81-1.03-1.34-2.24-1.54-3.52l-.36-2.22c-.35-2.14.45-4.31,2.1-5.71.52-.44,1.28-.48,1.83-.08.5.35,1.16.36,1.68.03l1.11-.71c.34-.21.75-.29,1.14-.2l7.18,1.59c.13.03.26,0,.36-.08l1.88-1.45c.15-.12.37-.12.53,0,.85.66,1.94.94,3,.76l.65-.11c.58-.09,1.12-.34,1.57-.7,1.55-1.23,3.81-.91,4.94.71l.39.55v2.23c0,.85.32,1.67.89,2.29.77.83,1.07,2,.79,3.1l-.93,3.72c-.14.6-.14,1.21.04,1.79l1.16,3.8c.23.75.71,1.39,1.35,1.83l1.36.91c.86.57,1.41,1.51,1.49,2.54l.18,2.25c.03.37.12.74.27,1.08l1.34,3.07c.6,1.36,1.57,2.52,2.83,3.32,1.07.7,1.96,1.66,2.56,2.79l1.16,2.15c.38.71.59,1.51.59,2.32,0,1.36.56,2.66,1.56,3.59l3.18,2.99c.62.58,1.1,1.28,1.41,2.07.97,2.43,3.46,3.91,6.07,3.59l.89-.11c.37-.04.74-.03,1.1.04l2.2.44c.53.1,1.03.33,1.46.66,1.63,1.27,3.69,1.87,5.75,1.68l.48-.04c1.27-.12,2.43-.76,3.23-1.76l1.27-1.62c.89-1.12,2.23-1.78,3.66-1.78h.62c.78,0,1.56.19,2.25.58h0c1.53.84,3.41.76,4.86-.23l.73-.5c.87-.59,1.91-.87,2.96-.79,1.98.15,3.91-.7,5.12-2.27l.15-.2c1.04-1.34,2.55-2.2,4.23-2.42l4.04-.53c1-.13,1.96-.46,2.83-.97l.89-.52c1.81-1.06,2.9-3.03,2.84-5.13-.04-1.59,1.12-2.96,2.7-3.16l1.55-.2c1.42-.19,2.53-1.32,2.68-2.74.06-.51-.02-1.02-.2-1.5l-.56-1.41c-.36-.89-.28-1.9.2-2.72l4.34-7.4c.6-1.03.86-2.21.75-3.39l-.06-.65c-.27-2.76,1.52-5.31,4.2-6,1-.26,2.06-.24,3.05.07l3.86,1.18c.66.2,1.28.54,1.8,1l1.83,1.6c.14.13.3.25.46.36l.03.02c1.83,1.25,2.59,3.58,1.86,5.67l-2.44,6.35c-.15.37-.2.77-.17,1.17l.36,4.6c.08,1.05.77,1.95,1.74,2.31,1.05.39,1.75,1.39,1.75,2.52v5.75c0,.79.35,1.54.95,2.05l3.19,2.68c1.68,1.41,2.82,3.38,3.2,5.54.42,2.3-.04,4.67-1.28,6.65l-.25.4c-.29.47-.84.71-1.39.59-.82-.18-1.58.45-1.58,1.28v1.14c0,.57-.37,1.08-.92,1.25l-1.45.46c-.59.19-.97.76-.91,1.37l.19,1.93c.04.46.32.86.74,1.05l.94.45c2.07,1,3.74,2.64,4.77,4.7l3.03,6.06c1.06,2.11.6,4.66-1.11,6.28-.31.29-.45.71-.4,1.12l.26,2c.95.74,1.32,2.01.92,3.15l-.36.99c-.43,1.22.03,2.57,1.11,3.27l1.31.86c.89.59,1.38,1.63,1.24,2.69l-.46,3.67c-.14,1.08-.71,2.06-1.61,2.7h0c-.71.5-1.22,1.23-1.47,2.07l-1.28,4.33c-.19.62-.52,1.19-.98,1.65l-4.15,4.15c-.95.95-1.35,2.34-1.04,3.66l1.34,5.67c.19.8.71,1.48,1.43,1.86l2.61,1.41c.56.3,1.2.41,1.83.31l3.4-.57c.62-.1,1.26,0,1.81.3l1.81.96c.23.12.48.21.73.27l4.17.9c1.2.26,2.1,1.26,2.24,2.48.09.73.44,1.41,1.01,1.88l9.11,7.59c.42.35.72.82.83,1.36l.86,3.8c.13.57.45,1.07.92,1.43l2.29,1.74c.47.36,1.04.54,1.62.5,1.5-.07,2.71,1.19,2.59,2.68l-.12,1.44.54.32c1.31.79,2.1,2.22,2.06,3.75-.06,2.35,1.8,4.3,4.15,4.35l2.19.04c1.3.03,2.53.65,3.31,1.69l.66.88c.15.2.32.39.5.56l4.19,3.89c1.91,1.78,4.71,2.19,7.05,1.04l5.75-2.82c.09-.04.17-.08.26-.1l5.82-1.94c2.97-.99,6.23-.59,8.88,1.09l.39.25c.77.48,1.76.41,2.44-.19h0c1.96-1.71,4.6-2.4,7.15-1.86l2.96.63c.89.19,1.71.56,2.43,1.11l.99.74c.95.72,2.1,1.14,3.29,1.22h0c2.07.14,4.08-.76,5.34-2.41l.94-1.22c.37-.49.87-.88,1.43-1.15l2.94-1.37c.76-.35,1.61-.45,2.42-.27h0c1.36.29,2.79.08,4.01-.6l.03-.02c.76-.42,1.69-.29,2.31.32l1.11,1.11c.61.61,1.57.74,2.32.31h0c.71-.41,1.1-1.23.94-2.04l-.76-3.9c-.03-.15-.08-.31-.14-.45l-1.79-3.84c-.26-.57-.24-1.23.08-1.78l3.01-5.2c.25-.43.32-.94.2-1.42-.73-3.02.63-6.15,3.33-7.68l.34-.19c1.3-.73,2.34-1.87,2.94-3.24l.5-1.14c.7-1.59.1-3.44-1.4-4.32l-2.15-1.26c-1.44-.84-2.06-2.6-1.46-4.16.26-.66.29-1.39.11-2.08l-2.02-7.65c-.12-.44-.06-.92.16-1.33l.74-1.34c.4-.72,1.25-1.07,2.04-.85l2.6.73c.31.09.63.09.95,0l3.64-.97c.73-.2,1.5.09,1.93.7.5.73,1.47.98,2.26.58l.86-.43c.59-.29,1.28-.24,1.82.13l2.31,1.6c.55.38,1.28.43,1.87.1.61-.33,1.35-.32,1.95.03l2.78,1.6c.54.31,1.21.36,1.79.1l.23-.09c.8-.34,1.73-.13,2.3.53l.52.6c.51.59,1.3.83,2.05.61l4.48-1.27c.78-.22,1.44-.73,1.85-1.44l3.8-6.57c.13-.21.22-.44.29-.68.71-2.42,2.62-4.29,5.05-4.96l1.55-.42c.71-.2,1.47-.19,2.18,0,1.32.36,2.73.06,3.77-.83l1.8-1.52c.74-.63,1.23-1.5,1.4-2.45l.63-3.67.84-4.43c.26-1.4.24-2.85-.09-4.24l-.14-.58c-.39-1.68-.06-3.44.91-4.86l.81-1.19c.22-.32.41-.66.56-1.02l1.37-3.16c.46-1.06,1.22-1.97,2.17-2.63,1.23-.84,2.11-2.1,2.49-3.54l.54-2.12c.2-.75.6-1.41,1.17-1.93l2.12-1.92c.48-.43,1.05-.74,1.68-.9h0c1.57-.39,2.73-1.7,2.94-3.3l.38-2.88c.1-.8.33-1.57.68-2.3.91-1.9,2.57-3.34,4.59-3.98l1.17-.37c.89-.28,1.8-.45,2.72-.53l-.2-.79v.03h0Z"/>
  <path class="st5" d="M586.47,1123.38l-3.63-3.64c-1.33-1.33-3.12-2.07-4.99-2.07h-1.45c-1.98,0-3.87-.83-5.2-2.29l-3.07-3.35c-1.1-1.2-1.74-2.74-1.85-4.36-.25-4.28-4.23-7.36-8.43-6.51l-2.75.55c-1.12.22-2.3-.04-3.21-.73l-2.81-2.11c-.48-.37-1.04-.61-1.63-.73l-7.93-1.58c-2.06-.41-3.46-2.34-3.22-4.43l1.28-11.17c.1-.89-.09-1.78-.55-2.55l-3.49-5.81c-.86-1.43-.75-3.24.27-4.56h0c1.44-1.85,1-4.54-.94-5.84l-.94-.63c-.69-.46-1.22-1.11-1.52-1.88l-6.28-16c-.08-.2-.16-.39-.26-.59l-3.93-8.18c-1.95-4.05-.51-8.92,3.31-11.28h0c.88-.55,1.52-1.4,1.79-2.42l2.25-8.58c.29-1.1.15-2.26-.41-3.26l-1.31-2.36c-.6-1.09-1.64-1.87-2.86-2.15l-1.91-.44c-2.37-.55-3.84-2.91-3.3-5.29h0c.5-2.18-.71-4.39-2.81-5.14l-2.64-.95c-1.47-.53-3.11-.15-4.21.95l-1.29,1.29c-.81.81-1.91,1.23-3.05,1.17l-3.26-.16c-4.89-.25-9.76.61-14.28,2.52h0c-3.31,1.4-6.82,2.23-10.41,2.48l-7.13.49c-3.67.26-7.36-.12-10.91-1.1l-11.34-3.13c-.89-.25-1.68-.79-2.21-1.55l-2.29-3.2-3.57-4.65c-1.74-2.27-4.05-4.06-6.68-5.18-3.07-1.32-5.68-3.52-7.49-6.34l-.25-.38c-1.69-2.64-4.09-4.74-6.92-6.09l-5.45-2.59c-1.28-.6-2.79-.49-3.97.29l-2.37,1.58c-.86.57-1.91.79-2.92.62l-4.28-.73c-.11-.02-.22-.03-.32-.04l-.35,3.65c-.03.38-.22.74-.52.99l-.09.08c-1.46,1.22-3.63,1.02-4.84-.44-1.23-1.47-3.43-1.66-4.88-.41l-.37.31c-1.16,1-1.52,2.63-.9,4.03l.23.51c.2.43.59.75,1.05.83l2.13.43c.84.17,1.36,1.02,1.12,1.86l-.75,2.57c-.03.1-.05.2-.05.31l-.22,3.14c-.06.88.67,1.63,1.56,1.58.68-.04,1.3.39,1.5,1.04l2.63,8.72c.27.9.59,1.79.94,2.66l4.64,11.42c.45,1.11.96,2.18,1.54,3.22l7.29,13.17,5.54,10.05c.09.16.2.32.31.47l5.22,6.27c.51.62.76,1.42.66,2.22v.05c-.25,2.17.64,4.32,2.35,5.68.53.42.93.99,1.14,1.63l.33,1c.37,1.09,1.23,1.93,2.34,2.26l1.15.34c1.17.35,2.08,1.28,2.4,2.46.43,1.61-.32,3.3-1.81,4.05-1.44.72-2.95,1.42-2.95,1.15,0-.32-.4,1.35-.71,2.7-.23.98.02,2.01.66,2.78l2.81,3.41c.75.9,1.79,1.52,2.94,1.71l2.19.38c.77.13,1.54.08,2.28-.14h0c2.42-.75,5.04.09,6.59,2.09l3.7,4.82c.43.56.26,1.39-.37,1.73-.45.25-1.01.16-1.38-.2l-1.2-1.2c-.42-.43-1.02-.64-1.62-.58-2.78.28-5.31,1.74-6.95,4.01l-.27.38c-.23.31-.35.7-.35,1.09v.98c0,.84.57,1.58,1.39,1.8.77.2,1.32.87,1.38,1.66l.21,2.71c.03.27-.02.54-.11.81l-.58,1.54c-.57,1.52-.65,3.18-.25,4.75.4,1.55,1.27,2.94,2.47,3.98l1.2,1.04c.52.45,1.24.6,1.9.37.92-.31,1.93.11,2.36.98l.48.95c.23.46.64.82,1.13.98l.79.26c.94.31,1.49,1.27,1.3,2.24l-.18.9c-.25,1.29.3,2.62,1.44,3.27.18.1.33.15.42.14.05-.2.09-.26.09-.14,0,.08-.03.13-.09.14-.07.26-.18.77-.31,1.36-.37,1.84.94,3.58,2.81,3.72l4.67.35c.91.07,1.81-.23,2.51-.82l1.02-.87c.9-.77,2.12-1.02,3.25-.68,1.09.32,1.95,1.17,2.3,2.25l5.3,16.18c.34,1.05-.71,2.01-1.72,1.58h0c-.63-.27-1.36,0-1.66.63l-.23.48c-.55,1.17-.79,2.46-.69,3.75.13,1.71.85,3.33,2.04,4.57l1.75,1.83c.31.33.74.53,1.2.54,1.71.09,3.32.83,4.49,2.09.66.71,1.16,1.55,1.47,2.48l5.02,15.24s.03.07.03.09l2.26,5.53c.42,1.02-.39,2.13-1.49,2.04h0c-1-.08-1.79.84-1.56,1.82l.49,2.04c.06.26.2.51.39.7l4.62,4.62s.07.07.11.09l5.71,4.71c1.41,1.17,2.32,2.84,2.53,4.66l.04.4c.4,3.46,3.24,6.1,6.71,6.27,1.53.07,3.04.14,4.12.19,1.02.04,2.01.4,2.82,1.01h0c1.42,1.07,3.3,1.32,4.95.65l3.55-1.42,1.68-.61c1.4-.51,2.52-1.62,3.04-3.02l.84-2.27c.08-.2.19-.4.31-.58l2.42-3.23c.37-.49.53-1.12.43-1.72h0c-.47-3.09.56-6.22,2.76-8.42l.23-.23c.11-.11.23-.22.35-.33l2.52-2.21c1.13-1,2.54-1.63,4.04-1.82,1.28-.16,2.51-.65,3.55-1.42l.79-.59c1.55-1.15,3.47-1.66,5.38-1.42l2.87.35,1.37.26c2.59.5,5.25-.29,7.16-2.11h0c.92-.88,1.62-1.97,2.04-3.18l1.6-4.58c.28-.81.69-1.57,1.21-2.24l3.83-5.04c1.05-1.37,1.67-3.01,1.8-4.73.2-2.61,1.54-5.01,3.65-6.55l1.24-.91c1.79-1.31,3.38-2.89,4.72-4.66h0c1.83-2.44,4.14-4.5,6.79-6.02l2.47-1.42c.38-.22.64-.62.67-1.06h0l-.13-11.05c0-1.06-.43-2.07-1.18-2.81h.03Z"/>
  <path class="st8" d="M212.49,720.65l3.77-1c2.45-.65,4.21-2.79,4.39-5.31l.28-3.94c.03-.38.09-.76.19-1.12l3.04-11.27c.7-2.59,3.04-4.39,5.73-4.39,2.51,0,4.75,1.57,5.59,3.94l1.07,2.99c.42,1.17.46,2.43.12,3.62l-1.49,5.21c-.31,1.1-.31,2.28.03,3.37l.59,1.91c.82,2.64,3.34,4.37,6.1,4.18l.58-.04c2.13-.15,4.17.85,5.36,2.63l4.48,6.73c.71,1.06,1.05,2.31.99,3.57l-.37,7.75c-.11,2.24.26,4.46,1.07,6.55l6.28,16.16c.8,2.07,2.02,3.94,3.59,5.5,1.32,1.32,2.39,2.85,3.18,4.54l5.42,11.62c1.22,2.62,4.15,3.98,6.94,3.21l8.39-2.29c.33-.09.67-.15,1.01-.19l22.29-2.08c2.67-.25,5.3-.76,7.86-1.55l8.63-2.63c1.24-.37,2.49-.69,3.77-.94l13.68-2.74c5.38-1.08,9.18-5.91,8.95-11.4l-.18-4.36c-.03-.71,0-1.43.12-2.13l2.35-15.49c.41-2.67.56-5.38.47-8.08l-.15-4.55c-.21-6.21-2.06-12.25-5.35-17.51-.78-1.25-1.07-2.74-.81-4.19l1.9-10.67c.54-3,1.57-5.89,3.08-8.55l2.39-4.23c1.8-3.2,6.05-4.01,8.9-1.69l7.33,5.94c.21.17.41.36.59.55l3.83,4.09c3.32,3.54,8.04,5.4,12.88,5.06l9.01-.62c.94-.07,1.89-.21,2.81-.44l7.36-1.85c3.35-.84,5.28-4.35,4.19-7.64l-2.8-8.39c-.11-.33-.19-.67-.24-1.01l-1.15-7.79c-19.48-12.56-36.39-25.29-53.34-41.19l-24.4-23.15c-5.51-5.17-11.44-9.88-17.71-14.08l-40.17-26.91c-10.12-6.78-20.49-13.16-31.11-19.13l-11.27-6.34c-7.21-4.06-14.01-8.79-20.31-14.14l-23.47-19.92c-12.09-10.26-23.34-21.48-33.65-33.54l-7.84-9.18c-3.07-3.6-6.39-6.98-9.92-10.13l-7.35-6.56c-.29.42-.53.88-.72,1.35l-1,2.46c-.23.56-.15,1.21.23,1.68.62.82.4,1.99-.48,2.51l-1.9,1.12c-.21.13-.38.33-.46.57l-.88,2.66c-.21.63-.94.91-1.51.57-.54-.31-1.23-.08-1.49.49l-.99,2.3c-.56,1.28-.88,2.66-.94,4.07l-.23,5.07c-.02.41-.02.83,0,1.23l.48,7.85c.12,1.96.99,3.82,2.41,5.17l7.82,7.43c.37.35.49.87.32,1.34-.34.96-1.61,1.15-2.21.34l-.17-.22c-.32-.42-.88-.61-1.39-.45h0c-.87.26-1.47,1.05-1.51,1.96l-.07,1.84c-.03.81.23,1.61.73,2.24l2.7,3.41c.36.45.94.66,1.51.53h0c.77-.18,1.56.28,1.78,1.05l.88,3.01c.2.68-.04,1.41-.6,1.85-.42.33-.67.83-.67,1.37v2.47c0,.95-.97,1.58-1.84,1.2-2.24-.98-4.86-.26-6.28,1.73l-1.44,2.01c-.71.99-1.27,2.1-1.64,3.27l-1.53,4.83c-.13.41-.48.71-.91.77-.83.12-1.24,1.06-.77,1.74l.79,1.17c.66.96.35,2.27-.66,2.84l-.77.43-1.05-.12c-1.56-.17-3.05.65-3.76,2.05-.48.96-1.35,1.67-2.4,1.95-1.49.39-2.64,1.58-2.98,3.08l-.85,3.72c-.4,1.76-2.19,2.84-3.94,2.36l-1.05-.29c-.51-.14-1-.37-1.36-.75-.64-.66-1.75-.7-2.42.03-.28.31-.43.7-.44,1.11l-.16,10.89c0,.23-.07.46-.18.67l-1.18,2.16c-.42.76-1.4.99-2.1.48-.65-.46-1.53-.31-2,.32l-2.19,2.99c-.21.29-.26.67-.13,1.01l1.11,2.85c.29.73-.29,1.51-1.07,1.44-.28-.03-.54-.15-.72-.37l-.55-.65c-.51-.6-1.47-.45-1.78.27l-.56,1.33c-.12.29-.37.51-.66.6l-5.18,1.57c-1.64.5-3.12,1.43-4.28,2.7l-.31.33c-1.08,1.19-2.45,2.08-3.97,2.6l-1.82.62c-1.89.65-3.18,2.39-3.24,4.38l-.02.55c-.03,1.17-.43,2.31-1.13,3.27l-.67.91c-.7.94-.5,2.28.44,2.98l2.03,1.5c.58.43.72,1.24.3,1.83-.31.43-.83.65-1.35.54l-2.45-.49c-.16-.03-.31-.1-.44-.2l-.94-.69c-.69-.5-1.66-.09-1.78.75h0c-.06.38.09.77.39,1.02l2.64,2.2c.57.48.54,1.36-.07,1.79l-2.3,1.62c-.48.34-.75.89-.73,1.48.05,1.45-1.73,2.17-2.7,1.1l-.24-.25c-.48-.53-1.26-.65-1.89-.31-.54.29-.85.88-.81,1.48l.18,2.33c.06.74-.42,1.42-1.14,1.62l-2.88.79c-.66.18-1.19.64-1.47,1.25l-1.11,2.45c-.13.28-.43.43-.73.38-.75-.15-1.32-.77-1.41-1.52l-.21-1.78c-.09-.81-.74-1.45-1.55-1.55l-.14-.02c-.85-.1-1.47-.83-1.45-1.68v-.07c.05-1.37-1.51-2.19-2.6-1.38-.74.54-.88,1.6-.32,2.32l1.12,1.45c.21.27.33.6.34.95l.13,3.83c.03.74.3,1.45.79,2l2.98,3.4,2.48,3.59c.42.61.41,1.42-.03,2.02l-.41.54c-.28.37-.4.85-.32,1.32l.2,1.2c.13.75.73,1.33,1.49,1.43.88.11,1.54.88,1.51,1.77l-.12,3.54c0,.13.02.27.06.41l.88,2.64c.32.96-.65,1.84-1.57,1.44-.28-.12-.5-.35-.61-.64l-1.85-4.64c-.48-1.2-2.97-1.88-2.97-1.88l-1.15,2.52-3.4,2.87c-.42.36-.67.87-.71,1.41l-.04.77c-.07,1.18-1.15,2.05-2.31,1.85-.95-.16-1.89.39-2.2,1.31l-1.31,3.78-1.5.21c-.61.08-.86.84-.41,1.27l2.25,2.17c.71.68.77,1.79.14,2.54l-.85,1.01c-.52.61-1.37.82-2.12.53l-1.95-.78c-.23-.09-.48-.14-.73-.14l-6.89.15c-.76.02-1.43.49-1.7,1.19h0c-.26.69-.92,1.16-1.66,1.19l-3.04.13-2.35-1.08c-.98-.45-2.08.36-1.93,1.43l.07.49c.08.56-.2,1.11-.71,1.39l-5.46,2.97c-.88.48-.96,1.7-.17,2.3.27.2.61.3.95.26l3.2-.31c.89-.09,1.62.7,1.48,1.58l-.24,1.44,1.42,1.95c1.69-.88,3.72.34,3.72,2.25v4.09c0,1.25.9,2.31,2.13,2.51l3.7.6c.48.08.92.29,1.28.6l1.16,1.02c.79.7,1.07,1.8.71,2.79l-.5,1.35c-.4,1.07-.05,2.27.85,2.97l1.21.93c.73.56,1.11,1.47,1,2.39-.11.85.21,1.7.86,2.27l.33.29c1.03.92,2.6.87,3.57-.1l.57-.57c.46-.46,1.06-.72,1.71-.76l6.73-.35c1.67-.09,3.33.28,4.8,1.07,1.98,1.05,3.5,2.8,4.29,4.9l.57,1.53c.62,1.67,2.29,2.72,4.06,2.55.47-.04.94,0,1.4.12l9.21,2.48c.74.2,1.51-.16,1.84-.85.37-.8,1.34-1.14,2.13-.74l3.52,1.76c.23.12.48.17.75.16l9.3-.25c2.22-.06,4.3,1.11,5.41,3.03h0c.56.97,1.38,1.77,2.36,2.3l6.79,3.67c.14.08.3.14.46.2l1.97.61c1.52.48,2.24,2.21,1.51,3.63-.22.42-.32.91-.29,1.39l.14,1.92c.09,1.16.94,2.1,2.08,2.31l6.67,1.24c2,.37,3.19,2.45,2.49,4.36l-.69,1.9c-.07.2-.21.37-.39.48l-1.73,1.06c-.56.34-.6,1.15-.08,1.55.2.15.33.38.37.63l.62,4.96c.03.21.03.43-.02.65l-.56,3.22c-.06.35-.03.7.08,1.05l.75,2.32c.48,1.5,2.36,2.01,3.54.96l1.84-1.64c.4-.36.93-.52,1.45-.46l1.33.14c.65.07,1.28-.2,1.68-.71.37-.49.96-.75,1.57-.72l1.46.08c.61.03,1.22-.11,1.74-.42l1.99-1.15c1.1-.63,1.71-1.86,1.55-3.12l-.25-1.97c-.02-.14,0-.27.02-.41l.22-1.11c.14-.73-.36-1.43-1.1-1.52l-.35-.04c-.64-.08-1.12-.63-1.12-1.27v-1.41c0-.74.62-1.32,1.35-1.28l.22.02c.77.04,1.4-.59,1.35-1.35v-.17c-.05-.76.56-1.39,1.32-1.35l2.42.09c.65.03,1.22-.44,1.31-1.09.1-.66-.32-1.29-.98-1.45l-.32-.08c-1.01-.23-1.34-1.51-.57-2.2l4.6-4.12c.19-.17.43-.28.68-.31l17.56-2.42c1.71-.24,3.45.03,5.01.78l.33.16c.9.43,1.73,1.01,2.43,1.72l5.85,5.85c4.79,2.34,10.03,3.6,15.36,3.7l1.49.03,11.35-.36,11.09.14,4.05-3.95c.73-.71,1.62-1.22,2.61-1.48h-.02Z"/>
  <path class="st8" d="M216.01,867.55c2.28-1.57,5.22-1.82,7.74-.68l1.25.57c1.03.47,2.14.71,3.27.71h1.93c3.99,0,7.35,2.96,7.84,6.92h0c.25,1.97,1.23,3.78,2.75,5.06l9.5,7.99c2.02,1.62,4.53,2.49,7.12,2.49h2.63c1.37,0,2.71-.43,3.82-1.23l8.68-6.26c.55-.4,1.22-.6,1.9-.57l9.96.42c2.16.09,3.97-1.64,3.97-3.8v-1.51c0-.89.31-1.75.89-2.44l6.35-7.61c1.22-1.46,3.34-1.8,4.95-.79h0c1.31.83,3,.76,4.25-.14l.54-.39c5.33-3.84,12.32-4.56,18.33-1.86,1.8.81,3.82.91,5.69.29h0c2.81-.94,5.92-.2,8.01,1.89l3.1,3.1c.23.23.43.49.61.77l1.37,2.19c.91,1.45,2.58,2.23,4.28,1.99l2.18-.31c2.15-.31,4.21,1.04,4.79,3.14.51,1.88,2.22,3.18,4.17,3.18h1.46c.16,0,.31,0,.48.03l9.55,1.06c.92.1,1.75.62,2.24,1.4h0c1.13,1.8,3.72,1.91,5,.21l.72-.96c1.16-1.54,3.44-1.62,4.71-.18l3.53,4.04c1.35,1.55,3.82,1.33,4.88-.43l2.91-4.83c.37-.62.51-1.34.39-2.06l-.2-1.24c-.94-5.61.79-11.32,4.68-15.47,1.33-1.43,1.01-3.72-.66-4.72-1.58-.95-1.98-3.08-.83-4.53l4.92-6.23c1.45-1.84,2.04-4.21,1.63-6.51h0c-.38-2.08.07-4.22,1.23-5.98l1.79-2.69c1.69-2.54,2.4-5.6,2-8.62l-.17-1.31c-.29-2.13.38-4.3,1.81-5.9,1.7-1.91,2.3-4.57,1.58-7.02l-1.59-5.42c-.24-.82-.34-1.68-.29-2.53l.41-6.95c.09-1.39,1.1-2.54,2.47-2.8l4.95-.93c1.54-.29,2.61-1.69,2.46-3.25l-.03-.31c-.18-1.95,1.51-3.55,3.45-3.28l2.51.36c1.42.2,2.78-.61,3.28-1.96,1.07-2.95,3.08-5.47,5.72-7.18l1.58-1.02c3.24-2.09,7.03-3.22,10.88-3.22h.46c1.39,0,2.61-.94,2.95-2.3l.71-2.83c.34-1.38-.31-2.81-1.58-3.44l-.82-.41c-1.69-.84-2.21-3.01-1.07-4.53h0c.97-1.29,1.19-3,.58-4.5l-7.92-19.29c-.72-1.74-1.24-3.56-1.57-5.42h0c-.9-5.1-3.28-9.81-6.85-13.56l-2.99-3.14c-2.26-2.37-4.04-5.14-5.29-8.17l-.5-1.22c-1.82-4.45-4.63-8.41-8.2-11.6-.43,2.18-2.07,4.03-4.39,4.61l-7.38,1.85c-.92.23-1.86.38-2.81.44l-9.03.62c-4.85.33-9.58-1.52-12.9-5.06l-3.84-4.09c-.19-.2-.38-.38-.6-.55l-7.34-5.94c-2.85-2.31-7.1-1.51-8.92,1.69l-2.39,4.23c-1.5,2.65-2.55,5.55-3.08,8.55l-1.91,10.68c-.25,1.45.03,2.94.81,4.19,3.3,5.26,5.14,11.31,5.36,17.51l.15,4.55c.09,2.7-.07,5.41-.47,8.08l-2.35,15.5c-.11.71-.14,1.42-.12,2.14l.18,4.36c.23,5.49-3.58,10.33-8.97,11.41l-13.7,2.74c-1.27.26-2.53.57-3.77.94l-8.64,2.63c-2.56.78-5.2,1.3-7.87,1.55l-22.32,2.08c-.34.03-.68.09-1.01.19l-8.41,2.29c-2.79.76-5.72-.6-6.95-3.21l-5.43-11.63c-.79-1.68-1.86-3.22-3.18-4.54-1.57-1.56-2.79-3.44-3.59-5.5l-6.29-16.16c-.81-2.08-1.18-4.31-1.07-6.55l.37-7.76c.06-1.27-.29-2.52-.99-3.57l-4.49-6.73c-1.18-1.78-3.24-2.78-5.36-2.63l-.58.04c-2.76.2-5.29-1.53-6.11-4.18l-.59-1.91c-.34-1.1-.35-2.27-.03-3.38l1.49-5.21c.34-1.19.3-2.46-.12-3.62l-1.07-2.99c-.84-2.36-3.08-3.94-5.6-3.94-2.69,0-5.04,1.8-5.74,4.39l-3.04,11.27c-.1.37-.16.74-.19,1.12l-.28,3.94c-.18,2.53-1.95,4.66-4.39,5.32l-3.77,1c-.99.26-1.88.77-2.61,1.48l-4.05,3.95c1.3.02,2.09,1.43,1.43,2.55-.85,1.45-1.02,3.19-.46,4.77l1.05,2.92c.49,1.34.72,2.77.69,4.2l-.1,5.68c-.03,1.38-.26,2.75-.72,4.06l-.76,2.2c-.2.57.02,1.2.53,1.53l1.56,1c.38.24.6.66.6,1.11v.2c0,.76.64,1.36,1.4,1.31h0c.77-.05,1.42.58,1.4,1.35l-.11,3.28c0,.27.07.54.21.76l3.42,5.26c.4.62.61,1.34.61,2.08,0,1.09.46,2.12,1.28,2.85l1.06.95c.66.6,1.52.94,2.42.97l3,.1c.61.02,1.22.19,1.75.49l1.52.86c1.75.99,2.57,3.06,1.98,4.98h0c-.26.86-.25,1.79.04,2.64l1.4,4.07c.27.8,0,1.69-.69,2.2-.5.37-.8.94-.8,1.57v1.26c0,.6-.27,1.16-.75,1.52-.54.43-1.29,1-1.8,1.4-.33.26-.72.43-1.14.52-1.94.4-4.07,4.48-4.56,5.45-.07.15-.15.28-.25.41l-1.57,2.13c-.76,1.03-.71,2.44.14,3.41.55.64.78,1.5.61,2.32l-.43,2.11c-.13.65-.02,1.34.31,1.9l.2.34c.34.58.45,1.26.32,1.91l-.8,4.01c-.27,1.38-.67,2.73-1.18,4.04l-.14.36c-1.4,3.6-3.59,6.85-6.4,9.49-.84.79-1.12,2.02-.69,3.09l.61,1.53c.06.16.11.32.14.49l.37,1.82c.19.92.82,1.68,1.69,2.04,1,.41,1.67,1.35,1.74,2.42l.22,3.72c.03.37-.03.74-.15,1.09l-.95,2.7c-.2.56-.31,1.15-.35,1.74l-.24,4.13c-.04.77.16,1.53.58,2.18.79,1.23.77,2.81-.05,4.01l-.49.71c-.43.63-.45,1.45-.09,2.09.45-.07.89-.23,1.26-.49l.33-.23-.02-.02h0Z"/>
  <path class="st8" d="M503.52,960.85c1.27-2.45,3.09-4.57,5.32-6.2,3.92-2.86,7-6.72,8.93-11.17l2.92-6.73c1.48-3.41,3.64-6.49,6.35-9.04,4.22-3.97,9.6-6.5,15.36-7.22l5.46-.68c.43-.05.86-.17,1.27-.35l7.53-3.34c1.83-.82,2.9-2.74,2.61-4.73l-.03-.18c-.49-3.37.19-6.79,1.91-9.73,1.13-1.94,1.82-4.1,2.01-6.34l.6-7.14c.24-2.89,1.31-5.64,3.08-7.94l1.15-1.49c1.57-2.03,2.59-4.42,2.96-6.95l.81-5.41c.31-2.12.94-4.18,1.85-6.13h0c1.95-4.17,5.15-7.65,9.16-9.94l.17-.1c1.47-.84,2.34-2.44,2.25-4.13h0c-.26-4.67,3.33-8.64,8-8.88l2.97-.14c.69-.03,1.39,0,2.07.08l9.83,1.34c1.74.24,3.47-.57,4.41-2.07.96-1.53,2.75-2.34,4.54-2.04l13.08,2.18c1.65.27,3.32-.39,4.32-1.73l1.08-1.44c.66-.88,1.63-1.49,2.71-1.7l13.93-2.78.39-.09c-6.16-4.28-11.45-9.76-15.5-16.14h0c-1.7-2.69-3.63-5.23-5.77-7.6l-20.96-23.22c-5.63-6.23-12.58-11.14-20.34-14.35l-22.01-9.11c-5.22-2.16-10.61-3.87-16.13-5.1l-22.01-4.93c-2.53-.57-5.14.52-6.52,2.7h0c-2.32,3.66-7.6,3.83-10.15.32l-6.65-9.16c-.36-.49-.79-.93-1.28-1.3l-42.7-32.13-29.97-24.49c-1.83-1.5-3.74-2.89-5.74-4.17l-15.35-9.84c-.29-.19-.56-.37-.85-.55l1.15,7.79c.05.34.13.68.24,1.01l2.8,8.39c.34,1.01.38,2.05.2,3.03,3.57,3.19,6.38,7.15,8.2,11.59l.5,1.22c1.24,3.03,3.03,5.79,5.29,8.16l2.99,3.14c3.57,3.75,5.94,8.46,6.84,13.55h0c.33,1.85.85,3.67,1.58,5.42l7.92,19.28c.61,1.5.39,3.21-.58,4.5h0c-1.13,1.51-.62,3.68,1.07,4.52l.82.41c1.27.64,1.93,2.07,1.58,3.44l-.71,2.83c-.34,1.35-1.55,2.3-2.94,2.3h-.46c-3.87,0-7.64,1.11-10.88,3.21l-1.58,1.02c-2.64,1.71-4.65,4.23-5.72,7.18-.49,1.34-1.86,2.17-3.28,1.96l-2.51-.36c-1.94-.28-3.63,1.33-3.45,3.27l.03.31c.15,1.56-.93,2.96-2.46,3.25l-4.95.93c-1.37.26-2.38,1.41-2.47,2.8l-.41,6.95c-.05.85.05,1.71.29,2.53l1.59,5.41c.72,2.46.13,5.1-1.58,7.01-1.43,1.62-2.09,3.77-1.81,5.9l.17,1.31c.14,1.01.14,2.03.03,3.03.5.02,1,.14,1.45.35l3.02,1.41c4.2,1.95,7.63,5.23,9.79,9.32l.48.9c1.97,3.75,5.03,6.82,8.78,8.82l3.86,2.06c.43.23.89.36,1.36.42l2.11.24c2.19.25,4.29.96,6.16,2.12l.09.05c3.77,2.31,6.31,6.19,6.94,10.56.23,1.58,1.43,2.86,3,3.17,2.6.52,4.69,2.41,5.47,4.94l2.54,8.23c1.08,3.51,1,7.29-.24,10.74-.99,2.76-1.24,5.74-.75,8.63l2.16,12.53c.32,1.89.87,3.72,1.63,5.47l2.34,5.46c1.74,4.07,2.36,8.54,1.75,12.94l-.68,5.01c-.3,2.17-.08,4.37.64,6.43l2.88,8.29c1.38,3.99,4.5,7.13,8.48,8.55,2.15.76,4.04,2.08,5.52,3.82l4.39,5.19c.57.67,1.35,1.12,2.21,1.27l3.49.63c.47-.81.92-1.62,1.35-2.46l5.22-10.05-.03-.02h0Z"/>
  <path class="st5" d="M785.35,900.56c-1.05-2.78-3.08-5.09-5.72-6.48l-.42-.22c-3.79-1.99-6.25-5.82-6.48-10.09l-.19-3.39c0-.12-.03-.25-.03-.36-10.31.38-20.63-1.32-30.34-5.05l-12.76-4.91c-.31-.12-.6-.26-.89-.42l-34.19-19.89c-.72-.42-1.46-.81-2.22-1.17l-31.72-15.02c-2.8-1.32-5.48-2.89-8-4.63l-.39.09-13.93,2.78c-1.08.21-2.04.82-2.71,1.7l-1.08,1.44c-1,1.33-2.67,2-4.33,1.72l-13.09-2.17c-1.79-.3-3.58.51-4.54,2.04-.94,1.49-2.66,2.3-4.41,2.06l-9.83-1.33c-.69-.09-1.38-.12-2.07-.08l-2.97.14c-4.67.23-8.27,4.21-8,8.87h0c.09,1.69-.77,3.28-2.25,4.12l-.17.1c-4.01,2.28-7.21,5.75-9.16,9.92h0c-.91,1.94-1.53,4-1.85,6.12l-.81,5.4c-.38,2.53-1.41,4.92-2.96,6.94l-1.15,1.49c-1.77,2.29-2.84,5.05-3.08,7.93l-.6,7.13c-.19,2.23-.87,4.4-2.01,6.33-1.71,2.93-2.38,6.36-1.91,9.72l.03.18c.28,1.98-.78,3.91-2.61,4.72l-7.54,3.34c-.4.18-.83.3-1.27.35l-5.47.68c-5.76.72-11.14,3.24-15.37,7.21-2.72,2.55-4.88,5.61-6.35,9.02l-2.92,6.72c-1.93,4.44-5.02,8.29-8.93,11.15-2.23,1.63-4.04,3.74-5.32,6.19l-5.22,10.03c-.43.82-.89,1.64-1.35,2.45l3.45.63c4.42.8,8.97.34,13.14-1.32l2.19-.87c3.35-1.34,6.37-3.42,8.79-6.09,2.03-2.22,4.78-3.64,7.77-4.01l.18-.03c3.96-.49,7.6-2.37,10.3-5.3h0c2.2-2.39,4.95-4.2,8-5.28h.03c4.47-1.58,9.36-1.5,13.77.21l2.52.98c1.88.73,3.98.72,5.86-.03,2.44-.98,4.25-3.09,4.83-5.66l1.7-7.66c.08-.34.18-.67.3-.99l1.33-3.45c1.12-2.91,4.05-4.73,7.17-4.45,1.46.14,2.84.72,3.95,1.67l4.33,3.74c2.7,2.32,6.22,3.49,9.77,3.22,2.18-.17,4.37.2,6.38,1.08l2.85,1.24c3.22,1.4,6.86,1.49,10.15.23l1.69-.65c1.35-.52,2.83-.63,4.24-.31l5.59,1.24c2.78.61,5.66-.42,7.41-2.66,1.23-1.58,3.05-2.58,5.04-2.79l6.71-.7c1.83-.2,3.52.95,4.03,2.72.31,1.09,1.1,1.99,2.15,2.43l7.83,3.34c3.18,1.36,6.67,1.79,10.08,1.26,5.01-.79,9.57-3.33,12.87-7.16l1.46-1.7c1-1.17,2.57-1.71,4.09-1.41l1.12.22c1.92.38,3.34,2.02,3.43,3.96l.32,6.36c.13,2.59.9,5.11,2.24,7.33h0c1.35,2.25,2.12,4.8,2.24,7.41l.42,9.12c.05,1.2-.4,2.36-1.25,3.21-1.74,1.73-2.53,4.19-2.12,6.6l.68,4.06c.44,2.67,2.38,4.85,4.96,5.62,1.67.5,3.1,1.59,4.01,3.07l2.69,4.36c.88,1.42,2.22,2.48,3.81,3l.32.11c2.12.7,3.79,2.37,4.5,4.48l.13.38c.52,1.54,1.55,2.86,2.93,3.74l7.48,4.74c3.37,2.14,7.61,2.43,11.25.76,1.99-.92,4.21-1.26,6.39-.98,5.02.63,10.11.27,14.99-1.05l9.41-2.55s.07-.02.1-.03h0c.02-.39.02-.78,0-1.16l-.57-11.42c-.02-.31-.04-.6-.08-.9l-.92-7.37c-.18-1.42-.1-2.86.22-4.25l2-8.64c.83-3.58.89-7.3.16-10.9h0c-.92-4.57-.58-9.3.98-13.69l.15-.44c.8-2.27,1.29-4.64,1.43-7.05l.83-13.72c.13-2.12,0-4.25-.4-6.34l-.4-2.15c-.56-3,.03-6.11,1.65-8.7l.52-.83c2.02-3.22,2.42-7.18,1.08-10.73l-.04.04Z"/>
  <text class="st0" transform="translate(1068.77 247.82)"><tspan x="0" y="0">노원구</tspan></text>
  <text class="st2" transform="translate(915.55 182.19)"><tspan x="0" y="0">도봉구</tspan></text>
  <text class="st2" transform="translate(843.78 305.29)"><tspan x="0" y="0">강북구</tspan></text>
  <text class="st0" transform="translate(858.77 468.79)"><tspan x="0" y="0">성북구</tspan></text>
  <text class="st0" transform="translate(971.03 553.93)"><tspan x="0" y="0">동대문구</tspan></text>
  <text class="st2" transform="translate(1128.93 496.38)"><tspan x="0" y="0">중랑구</tspan></text>
  <text class="st2" transform="translate(1117.44 696.08)"><tspan x="0" y="0">광진구</tspan></text>
  <text class="st0" transform="translate(1322.36 694.16)"><tspan x="0" y="0">강동구</tspan></text>
  <text class="st0" transform="translate(1210.68 884.78)"><tspan x="0" y="0">송파구</tspan></text>
  <text class="st0" transform="translate(866.5 1014.92)"><tspan x="0" y="0">서초구</tspan></text>
  <text class="st0" transform="translate(616.99 1063.51)"><tspan x="0" y="0">관악구</tspan></text>
  <text class="st1" transform="translate(452.98 1113.42) scale(.93 1)"><tspan x="0" y="0">금천구</tspan></text>
  <text class="st2" transform="translate(627.56 907.38)"><tspan x="0" y="0">동작구</tspan></text>
  <text class="st0" transform="translate(462.22 827.74)"><tspan x="0" y="0">영등포구</tspan></text>
  <text class="st0" transform="translate(277.79 926.12)"><tspan x="0" y="0">구로구</tspan></text>
  <text class="st0" transform="translate(280.37 834.86)"><tspan x="0" y="0">양천구</tspan></text>
  <text class="st0" transform="translate(173.16 644.41)"><tspan x="0" y="0">강서구</tspan></text>
  <text class="st0" transform="translate(543.5 384.48)"><tspan x="0" y="0">은평구</tspan></text>
  <text class="st2" transform="translate(715.02 531.38)"><tspan x="0" y="0">종로구</tspan></text>
  <text class="st2" transform="translate(796.85 647.96)"><tspan x="0" y="0">중구</tspan></text>
  <text class="st2" transform="translate(731.18 769.1)"><tspan x="0" y="0">용산구</tspan></text>
  <text class="st2" transform="translate(942.4 686.05)"><tspan x="0" y="0">성동구</tspan></text>
  <text class="st0" transform="translate(483.03 652.18)"><tspan x="0" y="0">마포구</tspan></text>
  <text class="st2" transform="translate(541.08 573.67)"><tspan x="0" y="0">서대문구</tspan></text>
  <path id="_강남구" data-name="강남구" class="st6" d="M1280.81,1042.6c-.37-.77-.82-1.5-1.35-2.17l-8.47-10.78c-2.95-3.75-5.2-8.01-6.64-12.57-1.04-3.29-2.51-6.44-4.37-9.36l-4.96-7.78c-.66-1.03-1.27-2.09-1.82-3.18l-8.84-17.19c-1.46-2.82-3.25-5.45-5.36-7.83l-2.81-3.16c-2.65-2.98-4.81-6.36-6.4-10.02h0c-2.52-5.79-6.46-10.86-11.44-14.74l-1.47-1.14c-1.45-1.12-2.97-2.14-4.56-3.05l-14.24-8.06c-1.41-.79-2.75-1.68-4.04-2.64l-1.1-.82c-6.22-4.66-13.42-7.88-21.05-9.4h0c-2.67-.53-5.22-1.48-7.59-2.81l-13.47-7.57c-1.95-1.1-4.04-1.93-6.2-2.49l-12.13-3.13c-2.62-.67-5.12-1.76-7.41-3.22l-2.45-1.56c-5.07-3.22-11.09-4.58-17.06-3.83l-1.34.17c-2.85.36-5.73-.37-8.07-2.04-3.18-2.27-4.98-6.01-4.78-9.9l.23-4.38c.04-.81,0-1.61-.13-2.41l-1.4-8.7c-.6-3.79-.99-7.62-1.12-11.47l-.26-7.17c-.09-2.6-.3-5.2-.61-7.78l-1.41-11.72-.98-10.78c-6.81-2.03-13.22-5.29-18.88-9.65l-12.21-9.38-12.47-9.12c-7.92-5.79-16.54-10.55-25.67-14.17l-26.74-10.61-21.31-8.53c-3.58-1.44-7.37-2.28-11.22-2.51l-.26-.02c-9.2-.54-18.26,2.33-25.45,8.06-2.34,1.86-4.61,3.67-6.28,4.99-1.82,1.45-3.51,3.06-5.02,4.82l-24.03,27.82.54.15c.53.14,1.01.4,1.43.75l5.72,4.76c.73.61,1.21,1.46,1.35,2.41l1.84,12.49c.71,4.83,1.88,9.58,3.51,14.19l4,11.38c1.12,3.18,2.03,6.43,2.71,9.72,1.39,6.65,3.65,13.09,6.74,19.13l4.96,9.7c3.56,6.97,6.03,14.44,7.31,22.16h0c.78,4.69,2.32,9.21,4.54,13.42l12.17,22.97c.89,1.67,1.66,3.39,2.32,5.16l9.18,24.46c.62,1.67,2.31,2.69,4.07,2.48l7.45-.88c.1,0,.2-.02.31-.03l13.53-.5c1.85-.07,3.48,1.17,3.91,2.98l1.63,6.91c.09.4.26.79.47,1.14l4.38,7.12c.19.31.33.64.43.99l3.96,14.13c.18.62.41,1.23.7,1.81l4.84,9.67c1.03,2.06,2.73,3.71,4.82,4.69l.66.32c3.37,1.57,5.63,4.86,5.87,8.58h0c.15,2.17-.41,4.33-1.57,6.16l-1.43,2.24c-.72,1.12-.8,2.53-.23,3.73l3.42,7.2c.76,1.6,2.51,2.48,4.25,2.14l11.87-2.37c.52-.1,1-.31,1.44-.61,4.85-3.35,10.64-5.09,16.53-4.94l6.26.14c7.12.17,14.15-1.67,20.27-5.29l3.3-1.95c2.74-1.63,5.87-2.48,9.05-2.48h0c3.35,0,6.63-.95,9.46-2.73l10.4-6.54c1.38-.87,2.41-2.18,2.92-3.72,1-3.01,3.91-4.98,7.08-4.79l4.33.26c.6.03,1.2,0,1.79-.13l9.91-1.98c2.45-.49,4.72,1.44,4.62,3.94l-.26,6.59c-.11,2.88,1.47,5.56,4.05,6.85h0c1.31.66,2.39,1.68,3.11,2.95l5.36,9.49c1.09,1.92,2.52,3.63,4.21,5.05l1.73,1.44c4.38,3.64,6.8,9.12,6.56,14.8h0c-.16,3.86.91,7.68,3.06,10.9l1.96,2.93c.62.94,1.62,1.55,2.73,1.69l1.29.16c3.02.37,4.44,3.92,2.51,6.28h0c-.75.92-1.04,2.13-.78,3.28l.74,3.32c.07.31.18.6.31.89l3.34,6.67c.13.26.23.54.3.82l.2.79c.73-.06,1.47-.06,2.21,0l6.16.59c.37.03.72.18,1,.42h0c.93.79,2.36.45,2.84-.67l.3-.71c.8-1.88,2.15-3.47,3.89-4.55l1.22-.76c1.13-.71,1.87-1.91,1.99-3.23.1-1.15.66-2.2,1.56-2.93l2.58-2.1c.53-.43,1.19-.66,1.87-.66h1.42c1.36,0,2.55-.93,2.88-2.25.1-.39.27-.76.52-1.08l1.07-1.4c.54-.7.66-1.63.31-2.45h0c-.62-1.49.33-3.16,1.93-3.39l1.6-.23c.15-.02.29-.03.43-.03l4.93.17,2.51.22c1.04.09,2.04.37,2.98.84l.43.21c1.35.68,2.87.97,4.38.84l.31-.03c2.48-.2,4.96.19,7.25,1.16l2.83,1.19c.75.32.89,1.33.24,1.83-.47.37-.55,1.04-.19,1.51l2.61,3.29c.06.08.14.15.22.21l6.34,4.47c.85.6,1.92.8,2.93.54h0c1.58-.39,2.69-1.8,2.71-3.42l.12-8.84c.02-.98.44-1.91,1.15-2.58l7.53-6.93c.26-.24.54-.45.86-.62l4.37-2.48c1.11-.63,1.91-1.68,2.22-2.92.26-1.05.88-1.97,1.74-2.6l5.36-3.98c.15-.11.31-.24.45-.36l1.45-1.24c.49-.42.92-.88,1.29-1.39l-7.64-16.1.04-.04h0Z"/>
  <text class="st0" transform="translate(1037.41 959.6)"><tspan x="0" y="0">강남구</tspan></text>
</svg>